<svg width="37" height="28" viewBox="0 0 37 28" fill="none" xmlns="http://www.w3.org/2000/svg">
<path d="M12.3718 0V28C12.2143 28 12.0475 27.9722 11.9085 27.9259C5.8397 26.0079 2.17061 22.2184 0.827128 16.6962C0.576962 15.6029 0.549166 14.454 0.475043 13.3329C0.428716 12.2396 0.456512 11.137 0.456512 10.0251H0.475043C0.484308 8.53342 0.512104 7.03243 0.465778 5.53144C0.447247 4.76241 0.817862 4.28987 1.63322 3.98412C4.89463 2.75182 8.15605 1.48246 11.4175 0.203839C11.751 0.0741231 12.0753 0 12.3811 0H12.3718Z" fill="#580818"/>
<path d="M33.571 0H15.1514V2.93713H33.571V0Z" fill="#580818"/>
<path d="M27.7894 6.26318H15.1514V9.20031H27.7894V6.26318Z" fill="#580818"/>
<path d="M36.9806 12.5356H15.1514V15.4728H36.9806V12.5356Z" fill="#580818"/>
<path d="M30.708 18.7993H15.031V21.7364H30.708V18.7993Z" fill="#580818"/>
<path d="M28.5399 25.0625H15.1514V27.9996H28.5399V25.0625Z" fill="#580818"/>
</svg>
