<svg width="80" height="80" viewBox="0 0 80 80" fill="none" xmlns="http://www.w3.org/2000/svg">
<g clip-path="url(#clip0_182_6191)">
<path d="M66.6667 43.3333H13.3333C11.5 43.3333 10 44.8333 10 46.6667V66.6667C10 68.5 11.5 70 13.3333 70H66.6667C68.5 70 70 68.5 70 66.6667V46.6667C70 44.8333 68.5 43.3333 66.6667 43.3333ZM23.3333 63.3333C19.6667 63.3333 16.6667 60.3333 16.6667 56.6667C16.6667 53 19.6667 50 23.3333 50C27 50 30 53 30 56.6667C30 60.3333 27 63.3333 23.3333 63.3333ZM66.6667 10H13.3333C11.5 10 10 11.5 10 13.3333V33.3333C10 35.1667 11.5 36.6667 13.3333 36.6667H66.6667C68.5 36.6667 70 35.1667 70 33.3333V13.3333C70 11.5 68.5 10 66.6667 10ZM23.3333 30C19.6667 30 16.6667 27 16.6667 23.3333C16.6667 19.6667 19.6667 16.6667 23.3333 16.6667C27 16.6667 30 19.6667 30 23.3333C30 27 27 30 23.3333 30Z" fill="#580818"/>
</g>
<defs>
<clipPath id="clip0_182_6191">
<rect width="80" height="80" fill="white"/>
</clipPath>
</defs>
</svg>
