<svg xmlns="http://www.w3.org/2000/svg" width="2186" height="2946" viewBox="0 0 2186 2946" version="1.1"><path d="M 3.200 3.294 L 0 6.595 0 1413.085 L 0 2819.576 2.750 2822.717 L 5.500 2825.858 61.500 2831.972 C 92.300 2835.335, 119.525 2838.308, 122 2838.579 C 124.475 2838.850, 128.075 2839.268, 130 2839.508 C 131.925 2839.749, 135.750 2840.183, 138.500 2840.474 C 143.185 2840.969, 364.228 2865.400, 374 2866.503 C 382.710 2867.486, 604.562 2891.998, 609.500 2892.523 C 612.250 2892.815, 616.075 2893.255, 618 2893.500 C 619.925 2893.745, 623.750 2894.183, 626.500 2894.474 C 629.250 2894.764, 678.300 2900.176, 735.500 2906.499 C 792.700 2912.822, 841.750 2918.234, 844.500 2918.525 C 847.250 2918.816, 851.075 2919.255, 853 2919.500 C 854.925 2919.745, 858.750 2920.183, 861.500 2920.473 C 864.250 2920.763, 915.325 2926.434, 975 2933.075 C 1034.675 2939.716, 1085.975 2945.212, 1089 2945.288 C 1096.007 2945.465, 1127.493 2942.173, 1229.500 2930.602 C 1251.500 2928.106, 1298.075 2922.912, 1333 2919.059 C 1412.539 2910.284, 1595.198 2890.177, 1679 2880.971 C 1713.925 2877.134, 1746.325 2873.545, 1751 2872.995 C 1755.675 2872.445, 1808.775 2866.584, 1869 2859.971 C 1929.225 2853.357, 2006.850 2844.818, 2041.500 2840.995 C 2076.150 2837.172, 2121.375 2832.193, 2142 2829.930 C 2178.351 2825.943, 2179.584 2825.737, 2182.250 2823.221 L 2185 2820.626 2185 1413.063 L 2185 5.500 2181.750 2.912 L 2178.500 0.325 2143.500 4.178 C 2099.962 8.971, 2018.962 17.900, 1936.500 26.997 C 1901.850 30.819, 1824.225 39.371, 1764 46 C 1703.775 52.629, 1626.150 61.181, 1591.500 65.003 C 1556.850 68.826, 1503.750 74.678, 1473.500 78.008 C 1419.017 84.007, 1351.444 91.454, 1228.250 105.036 C 1193.188 108.902, 1148.075 113.887, 1128 116.114 L 1091.500 120.164 1075.500 118.520 C 1066.700 117.616, 1058.375 116.714, 1057 116.517 C 1055.625 116.319, 1051.575 115.862, 1048 115.500 C 1044.425 115.138, 1040.375 114.688, 1039 114.500 C 1037.625 114.312, 1033.575 113.862, 1030 113.500 C 1026.425 113.138, 1022.375 112.688, 1021 112.500 C 1019.625 112.312, 1015.575 111.862, 1012 111.500 C 1008.425 111.138, 1004.375 110.688, 1003 110.500 C 1001.625 110.312, 997.575 109.862, 994 109.500 C 990.425 109.138, 986.375 108.693, 985 108.510 C 983.625 108.327, 979.800 107.888, 976.500 107.534 C 973.200 107.180, 968.700 106.686, 966.500 106.436 C 964.300 106.186, 933.925 102.837, 899 98.994 C 864.075 95.151, 833.250 91.756, 830.500 91.451 C 827.750 91.145, 823.475 90.678, 821 90.412 C 818.525 90.146, 814.925 89.732, 813 89.492 C 811.075 89.251, 807.025 88.805, 804 88.500 C 800.975 88.195, 796.925 87.745, 795 87.500 C 793.075 87.255, 789.025 86.805, 786 86.500 C 782.975 86.195, 778.925 85.745, 777 85.500 C 775.075 85.255, 771.025 84.805, 768 84.500 C 764.975 84.195, 760.925 83.745, 759 83.500 C 757.075 83.255, 753.025 82.805, 750 82.500 C 746.975 82.195, 742.925 81.745, 741 81.500 C 739.075 81.255, 735.025 80.805, 732 80.500 C 728.975 80.195, 724.925 79.745, 723 79.500 C 721.075 79.255, 717.250 78.817, 714.500 78.526 C 711.750 78.236, 682.950 75.073, 650.500 71.498 C 618.050 67.923, 589.250 64.761, 586.500 64.472 C 583.750 64.182, 579.925 63.745, 578 63.500 C 576.075 63.255, 572.025 62.805, 569 62.500 C 565.975 62.195, 561.925 61.745, 560 61.500 C 558.075 61.255, 554.025 60.805, 551 60.500 C 547.975 60.195, 543.925 59.745, 542 59.500 C 540.075 59.255, 536.025 58.805, 533 58.500 C 529.975 58.195, 525.925 57.745, 524 57.500 C 522.075 57.255, 518.025 56.805, 515 56.500 C 511.975 56.195, 507.925 55.745, 506 55.500 C 504.075 55.255, 500.025 54.805, 497 54.500 C 493.975 54.195, 489.925 53.745, 488 53.500 C 486.075 53.255, 482.250 52.815, 479.500 52.523 C 476.750 52.230, 443.900 48.621, 406.500 44.502 C 369.100 40.383, 336.250 36.773, 333.500 36.479 C 330.750 36.186, 326.925 35.745, 325 35.500 C 323.075 35.255, 319.025 34.805, 316 34.500 C 312.975 34.195, 308.925 33.745, 307 33.500 C 305.075 33.255, 301.025 32.805, 298 32.500 C 294.975 32.195, 290.925 31.745, 289 31.500 C 287.075 31.255, 283.025 30.805, 280 30.500 C 276.975 30.195, 272.925 29.745, 271 29.500 C 269.075 29.255, 265.025 28.805, 262 28.500 C 258.975 28.195, 254.925 27.745, 253 27.500 C 251.075 27.255, 247.250 26.815, 244.500 26.523 C 238.052 25.837, 104.780 11.172, 99.500 10.567 C 97.300 10.315, 92.800 9.820, 89.500 9.466 C 86.200 9.112, 82.375 8.669, 81 8.480 C 79.625 8.291, 75.350 7.825, 71.500 7.444 C 67.650 7.063, 63.825 6.630, 63 6.483 C 62.175 6.335, 57.900 5.853, 53.500 5.411 C 49.100 4.970, 45.275 4.556, 45 4.493 C 44.725 4.429, 40.675 3.982, 36 3.500 C 31.325 3.018, 27.275 2.568, 27 2.500 C 26.725 2.432, 22.675 2.035, 18 1.617 C 13.325 1.199, 8.802 0.662, 7.950 0.424 C 7.094 0.186, 4.966 1.471, 3.200 3.294 M 12 1413.793 L 12 2814.804 18.250 2815.481 C 21.688 2815.853, 25.625 2816.312, 27 2816.500 C 28.375 2816.688, 32.425 2817.138, 36 2817.500 C 39.575 2817.862, 43.625 2818.312, 45 2818.500 C 46.375 2818.688, 50.425 2819.138, 54 2819.500 C 57.575 2819.862, 61.625 2820.312, 63 2820.500 C 64.375 2820.688, 68.425 2821.138, 72 2821.500 C 75.575 2821.862, 79.625 2822.307, 81 2822.490 C 82.375 2822.673, 86.200 2823.109, 89.500 2823.458 C 92.800 2823.807, 97.075 2824.277, 99 2824.503 C 100.925 2824.729, 107 2825.406, 112.500 2826.008 C 118 2826.610, 124.300 2827.309, 126.500 2827.561 C 131.843 2828.172, 238.132 2839.849, 244.500 2840.524 C 247.250 2840.816, 251.075 2841.255, 253 2841.500 C 254.925 2841.745, 258.975 2842.195, 262 2842.500 C 265.025 2842.805, 269.075 2843.255, 271 2843.500 C 272.925 2843.745, 276.975 2844.195, 280 2844.500 C 283.025 2844.805, 287.075 2845.255, 289 2845.500 C 290.925 2845.745, 294.975 2846.195, 298 2846.500 C 301.025 2846.805, 305.075 2847.255, 307 2847.500 C 308.925 2847.745, 312.975 2848.195, 316 2848.500 C 319.025 2848.805, 323.075 2849.255, 325 2849.500 C 326.925 2849.745, 330.750 2850.178, 333.500 2850.461 C 336.250 2850.745, 342.550 2851.437, 347.500 2852 C 352.450 2852.563, 358.525 2853.245, 361 2853.515 C 363.475 2853.785, 390.025 2856.703, 420 2860 C 449.975 2863.297, 476.750 2866.233, 479.500 2866.524 C 482.250 2866.816, 486.075 2867.255, 488 2867.500 C 489.925 2867.745, 493.975 2868.195, 497 2868.500 C 500.025 2868.805, 504.075 2869.255, 506 2869.500 C 507.925 2869.745, 511.975 2870.195, 515 2870.500 C 518.025 2870.805, 522.075 2871.255, 524 2871.500 C 525.925 2871.745, 529.975 2872.195, 533 2872.500 C 536.025 2872.805, 540.075 2873.255, 542 2873.500 C 543.925 2873.745, 547.975 2874.195, 551 2874.500 C 554.025 2874.805, 558.075 2875.255, 560 2875.500 C 561.925 2875.745, 565.975 2876.195, 569 2876.500 C 572.025 2876.805, 576.075 2877.255, 578 2877.500 C 579.925 2877.745, 583.975 2878.207, 587 2878.525 C 597.693 2879.652, 601.538 2880.076, 605 2880.508 C 606.925 2880.749, 610.750 2881.184, 613.500 2881.476 C 616.250 2881.767, 638.975 2884.253, 664 2887 C 689.025 2889.747, 711.750 2892.233, 714.500 2892.524 C 717.250 2892.816, 721.075 2893.255, 723 2893.500 C 724.925 2893.745, 728.975 2894.195, 732 2894.500 C 735.025 2894.805, 739.075 2895.255, 741 2895.500 C 742.925 2895.745, 746.975 2896.195, 750 2896.500 C 753.025 2896.805, 757.075 2897.255, 759 2897.500 C 760.925 2897.745, 764.975 2898.195, 768 2898.500 C 771.025 2898.805, 775.075 2899.255, 777 2899.500 C 778.925 2899.745, 782.975 2900.195, 786 2900.500 C 789.025 2900.805, 793.075 2901.255, 795 2901.500 C 796.925 2901.745, 800.975 2902.195, 804 2902.500 C 807.025 2902.805, 811.075 2903.255, 813 2903.500 C 814.925 2903.745, 818.975 2904.207, 822 2904.525 C 832.693 2905.652, 836.538 2906.076, 840 2906.508 C 841.925 2906.749, 845.750 2907.184, 848.500 2907.476 C 851.250 2907.767, 878.025 2910.703, 908 2914 C 937.975 2917.297, 964.750 2920.233, 967.500 2920.524 C 970.250 2920.816, 974.075 2921.255, 976 2921.500 C 977.925 2921.745, 981.975 2922.195, 985 2922.500 C 988.025 2922.805, 992.075 2923.255, 994 2923.500 C 995.925 2923.745, 999.975 2924.195, 1003 2924.500 C 1006.025 2924.805, 1010.075 2925.255, 1012 2925.500 C 1013.925 2925.745, 1017.975 2926.195, 1021 2926.500 C 1024.025 2926.805, 1028.075 2927.255, 1030 2927.500 C 1031.925 2927.745, 1035.975 2928.195, 1039 2928.500 C 1042.025 2928.805, 1046.075 2929.255, 1048 2929.500 C 1049.925 2929.745, 1053.750 2930.178, 1056.500 2930.461 C 1059.250 2930.745, 1065.325 2931.424, 1070 2931.970 C 1089.071 2934.200, 1091.435 2934.179, 1115 2931.581 C 1127.925 2930.157, 1141.200 2928.556, 1144.500 2928.025 C 1151.334 2926.925, 1152.621 2926.776, 1174.500 2924.551 C 1183.300 2923.656, 1196.800 2922.278, 1204.500 2921.489 C 1218.043 2920.100, 1374.089 2903.004, 1428 2897.003 C 1442.575 2895.380, 1495.675 2889.529, 1546 2884 C 1596.325 2878.471, 1649.425 2872.621, 1664 2871 C 1678.575 2869.379, 1731.675 2863.527, 1782 2857.996 C 1832.325 2852.466, 1889.475 2846.167, 1909 2843.999 C 1928.525 2841.832, 1981.625 2835.981, 2027 2830.998 C 2072.375 2826.015, 2123.520 2820.377, 2140.655 2818.469 C 2157.791 2816.561, 2172.304 2815, 2172.905 2815 C 2173.698 2815, 2174 2427.988, 2174 1414 L 2174 13 2171.209 13 C 2169.072 13, 2081.731 22.403, 2055 25.511 C 2052.525 25.798, 2023.950 28.948, 1991.500 32.511 C 1959.050 36.073, 1930.475 39.222, 1928 39.508 C 1925.525 39.794, 1901 42.494, 1873.500 45.508 C 1846 48.522, 1821.475 51.223, 1819 51.511 C 1816.525 51.798, 1787.950 54.948, 1755.500 58.511 C 1723.050 62.073, 1694.475 65.223, 1692 65.511 C 1689.525 65.798, 1660.950 68.948, 1628.500 72.511 C 1596.050 76.073, 1567.475 79.222, 1565 79.508 C 1562.525 79.794, 1538 82.494, 1510.500 85.508 C 1483 88.522, 1458.475 91.223, 1456 91.511 C 1453.525 91.798, 1424.950 94.948, 1392.500 98.511 C 1360.050 102.073, 1331.475 105.223, 1329 105.511 C 1326.525 105.798, 1297.950 108.945, 1265.500 112.504 C 1233.050 116.063, 1204.700 119.191, 1202.500 119.454 C 1176.767 122.535, 1095.312 131.246, 1091.500 131.325 C 1088.750 131.382, 1083.575 131.093, 1080 130.684 C 1076.425 130.274, 1067.425 129.264, 1060 128.440 C 1052.575 127.615, 1044.925 126.755, 1043 126.529 C 1039.152 126.076, 1030.461 125.097, 1025 124.500 C 1019.954 123.948, 1011.062 122.948, 1007 122.475 C 1005.075 122.251, 998.775 121.583, 993 120.992 C 980.635 119.725, 974.789 119.090, 970 118.492 C 968.075 118.251, 964.025 117.805, 961 117.500 C 957.975 117.195, 953.925 116.745, 952 116.500 C 950.075 116.255, 946.025 115.805, 943 115.500 C 939.975 115.195, 935.925 114.745, 934 114.500 C 932.075 114.255, 928.025 113.805, 925 113.500 C 921.975 113.195, 917.925 112.745, 916 112.500 C 914.075 112.255, 910.250 111.816, 907.500 111.524 C 904.750 111.232, 894.400 110.096, 884.500 109 C 874.600 107.904, 864.250 106.768, 861.500 106.476 C 858.750 106.184, 854.925 105.745, 853 105.500 C 851.075 105.255, 847.025 104.805, 844 104.500 C 840.975 104.195, 836.925 103.745, 835 103.500 C 833.075 103.255, 829.250 102.821, 826.500 102.536 C 820.327 101.895, 794.768 99.089, 790 98.529 C 786.152 98.076, 777.461 97.097, 772 96.500 C 768.859 96.157, 766.119 95.851, 754 94.489 C 752.075 94.273, 747.575 93.831, 744 93.506 C 740.425 93.181, 736.375 92.729, 735 92.500 C 733.625 92.271, 729.575 91.821, 726 91.500 C 722.425 91.179, 718.375 90.729, 717 90.500 C 715.625 90.271, 711.575 89.821, 708 89.500 C 704.425 89.179, 700.375 88.729, 699 88.500 C 697.625 88.271, 693.575 87.821, 690 87.500 C 686.425 87.179, 682.375 86.732, 681 86.508 C 679.625 86.284, 676.025 85.855, 673 85.555 C 669.975 85.255, 659.400 84.109, 649.500 83.008 C 639.600 81.907, 629.250 80.768, 626.500 80.476 C 623.750 80.184, 619.925 79.745, 618 79.500 C 616.075 79.255, 612.025 78.805, 609 78.500 C 605.975 78.195, 601.925 77.745, 600 77.500 C 598.075 77.255, 594.250 76.821, 591.500 76.536 C 584.336 75.792, 559.139 73.018, 555 72.516 C 553.075 72.283, 548.800 71.807, 545.500 71.458 C 542.200 71.109, 538.375 70.669, 537 70.480 C 535.625 70.291, 531.350 69.825, 527.500 69.444 C 523.650 69.063, 519.801 68.625, 518.947 68.471 C 518.093 68.317, 513.368 67.891, 508.447 67.526 C 496.244 66.619, 437.924 60.263, 430.500 59.030 C 427.200 58.483, 422.250 57.800, 419.500 57.514 C 416.750 57.228, 406.400 56.096, 396.500 55 C 386.600 53.904, 376.250 52.768, 373.500 52.476 C 370.750 52.184, 366.925 51.745, 365 51.500 C 363.075 51.255, 359.250 50.821, 356.500 50.536 C 350.327 49.895, 324.768 47.089, 320 46.529 C 316.152 46.076, 307.461 45.097, 302 44.500 C 296.954 43.948, 288.062 42.948, 284 42.475 C 282.075 42.251, 275.775 41.583, 270 40.992 C 257.635 39.725, 251.789 39.090, 247 38.492 C 245.075 38.251, 241.025 37.805, 238 37.500 C 234.975 37.195, 230.925 36.745, 229 36.500 C 227.075 36.255, 223.025 35.805, 220 35.500 C 216.975 35.195, 212.925 34.745, 211 34.500 C 209.075 34.255, 205.025 33.805, 202 33.500 C 198.975 33.195, 194.925 32.745, 193 32.500 C 191.075 32.255, 187.250 31.816, 184.500 31.524 C 181.750 31.232, 171.400 30.096, 161.500 29 C 151.600 27.904, 141.250 26.768, 138.500 26.476 C 135.750 26.184, 131.925 25.745, 130 25.500 C 128.075 25.255, 124.250 24.819, 121.500 24.531 C 112.715 23.611, 70.631 18.973, 67 18.525 C 65.075 18.287, 60.800 17.807, 57.500 17.458 C 54.200 17.109, 50.375 16.669, 49 16.480 C 47.625 16.291, 43.350 15.825, 39.500 15.444 C 35.650 15.063, 31.801 14.625, 30.947 14.471 C 30.093 14.317, 25.480 13.874, 20.697 13.486 L 12 12.782 12 1413.793" stroke="none" fill="#5c0c1c" fill-rule="evenodd"/></svg>