<svg width="46" height="26" viewBox="0 0 46 26" fill="none" xmlns="http://www.w3.org/2000/svg">
<path d="M31.59 16.5198C31.15 16.7598 30.7 16.9698 30.25 17.1998C29.61 17.5098 28.96 17.8198 28.32 18.1398C28.08 18.2598 27.88 18.4198 27.73 18.6598C27.64 18.8098 27.61 18.9798 27.64 19.1598C27.7 19.5498 27.54 19.7398 27.13 19.7398C26.89 19.7398 26.64 19.7098 26.39 19.6798C25.66 19.5998 24.93 19.5198 24.2 19.4398C23.78 19.3898 23.36 19.3398 22.95 19.2898C22.89 19.2898 22.83 19.2798 22.76 19.2798C22.76 19.3298 22.75 19.3698 22.75 19.4098V20.8698C22.76 20.9498 22.75 21.0198 22.75 21.0898C22.72 21.3698 22.53 21.5498 22.27 21.5398C21.98 21.5398 21.78 21.3698 21.78 21.0698C21.76 20.5298 21.76 19.9998 21.77 19.4598C21.77 19.3298 21.75 19.2798 21.61 19.2998C20.77 19.3998 19.94 19.4798 19.11 19.5698C18.59 19.6298 18.07 19.6998 17.54 19.7398C17.38 19.7498 17.2 19.7098 17.04 19.6498C16.87 19.5798 16.82 19.4398 16.85 19.2598C16.94 18.8298 16.76 18.5098 16.43 18.2698C16.23 18.1298 15.99 18.0198 15.76 17.9098C14.85 17.4598 13.93 17.0198 13.01 16.5698C12.97 16.5398 12.92 16.5198 12.88 16.4898C12.58 16.2698 12.56 15.9798 12.85 15.7398C12.98 15.6298 13.13 15.5398 13.28 15.4398C13.77 15.1198 13.93 14.5398 13.67 14.0098L12.89 12.5098C12.84 12.3998 12.78 12.2998 12.75 12.1898C12.62 11.8098 12.83 11.4998 13.23 11.4798C13.5 11.4698 13.78 11.4898 14.05 11.4898C14.38 11.4898 14.72 11.5298 15.04 11.4698C15.55 11.3698 15.9 11.0498 16.09 10.5498C16.14 10.4298 16.17 10.3098 16.23 10.1898C16.43 9.72982 16.89 9.59982 17.3 9.89982C17.63 10.1398 17.94 10.4198 18.26 10.6798C18.49 10.8698 18.72 11.0598 18.95 11.2398C19.07 11.3298 19.21 11.4198 19.35 11.3298C19.49 11.2398 19.46 11.0798 19.43 10.9498C19.33 10.4798 19.22 10.0098 19.11 9.53982C18.89 8.59982 18.67 7.66982 18.45 6.72982C18.36 6.34982 18.51 6.03982 18.84 5.98982C18.98 5.95982 19.14 5.98982 19.29 6.01982C19.49 6.04982 19.68 6.10982 19.88 6.14982C20.45 6.24982 21 5.98982 21.28 5.48982C21.47 5.14982 21.64 4.80982 21.81 4.46982C21.86 4.37982 21.91 4.29982 21.97 4.21982C22.18 3.94982 22.45 3.94982 22.63 4.22982C22.79 4.46982 22.91 4.73982 23.05 4.98982C23.15 5.16982 23.23 5.34982 23.33 5.52982C23.6 5.98982 24.13 6.23982 24.66 6.15982C24.94 6.10982 25.22 6.05982 25.5 6.02982C25.94 5.97982 26.21 6.25982 26.12 6.68982C25.99 7.30982 25.84 7.91982 25.69 8.52982C25.51 9.30982 25.32 10.0798 25.14 10.8498C25.12 10.9498 25.1 11.0498 25.11 11.1498C25.13 11.3598 25.25 11.4298 25.44 11.3398C25.55 11.2898 25.66 11.2198 25.75 11.1398C26.23 10.7598 26.7 10.3698 27.17 9.97982C27.34 9.82982 27.53 9.71982 27.76 9.74982C28.05 9.78982 28.22 9.96982 28.33 10.2298C28.38 10.3398 28.41 10.4498 28.45 10.5498C28.68 11.1798 29.27 11.5698 29.93 11.5398C30.34 11.5298 30.75 11.5098 31.16 11.4998C31.31 11.4998 31.47 11.5198 31.6 11.5698C31.8 11.6398 31.91 11.8398 31.84 12.0398C31.76 12.2898 31.65 12.5398 31.53 12.7798C31.32 13.1998 31.1 13.5998 30.88 14.0198C30.63 14.4898 30.78 15.0998 31.21 15.4098C31.31 15.4798 31.41 15.5398 31.51 15.6098C31.56 15.6298 31.6 15.6598 31.64 15.6898C32 15.9598 31.99 16.2998 31.6 16.5198H31.59Z" fill="#ffffff"/>
<path d="M37.0401 25.4902H45.8301V0.000234604H37.0401V25.4902Z" fill="#ffffff"/>
<path d="M3.91006e-05 25.4902H8.79004L8.79004 0.000234604H3.91006e-05L3.91006e-05 25.4902Z" fill="#ffffff"/>
<path d="M36.05 1V24.49H9.79004V1H36.05ZM37.05 0H8.79004V25.49H37.05V0Z" fill="#ffffff"/>
</svg>
