<svg width="41" height="41" viewBox="0 0 41 41" fill="none" xmlns="http://www.w3.org/2000/svg">
<path d="M40.2501 17.7697C39.3701 13.9497 37.0501 11.3897 33.3101 10.1597C32.8701 10.0197 32.6601 9.81972 32.5301 9.35972C30.4701 2.02972 22.6701 -1.75028 15.9601 0.789725C11.3901 2.50972 8.64008 5.84972 7.70008 10.6597C7.62008 11.0997 7.56008 11.5497 7.50008 11.9897C5.73008 12.3097 4.19008 13.0197 2.91008 14.2197C0.0500791 16.8797 -0.739921 20.7897 0.710079 24.3797C1.69008 26.7897 3.52008 28.3897 5.94008 29.3297C7.36008 29.8797 8.84008 29.9697 10.3401 29.8897C10.6601 29.8697 10.7301 29.9797 10.7301 30.2797C10.7201 32.2297 10.7301 34.1797 10.7201 36.1297C10.7201 36.9597 11.0301 37.6397 11.6101 38.1997C12.2501 38.8097 13.0201 39.1897 13.8301 39.4897C15.3801 40.0597 16.9801 40.4097 18.6501 40.4897C21.0001 40.5997 23.3001 40.4897 25.5801 39.8897C26.5501 39.6297 27.5001 39.3097 28.3301 38.7297C29.3501 38.0197 29.9401 37.1097 29.8901 35.7797C29.8201 34.0297 29.8701 32.2697 29.8701 30.5097V29.9197H30.3001C32.2901 29.8897 34.1301 29.3397 35.8301 28.2897C39.2801 26.1397 41.1701 21.7397 40.2601 17.7797L40.2501 17.7697ZM13.0501 19.9397C13.6901 19.3797 14.4901 19.1197 15.2701 18.8597C16.8701 18.3397 18.5201 18.2597 20.2801 18.2797C22.0101 18.2297 23.8001 18.4097 25.5401 18.9797C26.2201 19.1997 26.8901 19.4497 27.4301 19.9397C27.8201 20.2997 27.8301 20.4397 27.4201 20.7697C26.6301 21.4097 25.7101 21.7697 24.7401 21.9697C22.4301 22.4497 20.1101 22.5697 17.7601 22.2797C16.4401 22.1197 15.1501 21.8997 13.9601 21.2697C13.6301 21.0997 13.3301 20.8797 13.0401 20.6397C12.7401 20.3897 12.7501 20.1797 13.0501 19.9297V19.9397ZM27.7001 25.6397C27.6901 25.8497 27.4601 26.0797 27.2701 26.2197C26.5401 26.7597 25.7101 27.0997 24.8301 27.2797C22.6101 27.7597 20.3601 27.8497 18.1001 27.6497C17.0101 27.5497 15.9101 27.4197 14.8901 27.0197C14.2901 26.7897 13.7401 26.4397 13.1801 26.1197C13.0401 26.0397 12.8801 25.8397 12.8801 25.6997C12.8501 24.8597 12.8601 24.0297 12.8601 23.1997C17.8101 25.0997 22.7401 25.0497 27.7101 23.1897C27.7101 24.0097 27.7401 24.8297 27.6901 25.6397H27.7001ZM12.8401 28.7397C12.8401 28.6597 12.8601 28.5797 12.8701 28.5097C17.8201 30.4397 22.7501 30.3397 27.7001 28.5497C27.7001 28.5897 27.7101 28.6497 27.7201 28.7097C27.7201 29.3697 27.7201 30.0297 27.7401 30.6897C27.7601 31.0597 27.6301 31.3497 27.3301 31.5197C26.8901 31.7697 26.4501 32.0297 25.9801 32.2197C24.7401 32.7297 23.4201 32.8997 22.0901 33.0097C19.8301 33.1997 17.5801 33.0797 15.3901 32.4797C14.6401 32.2697 13.9201 31.9797 13.2801 31.5297C12.9801 31.3197 12.8501 31.0597 12.8501 30.6897C12.8601 30.0397 12.8501 29.3897 12.8501 28.7397H12.8401ZM27.1401 36.9797C25.9901 37.6497 24.7301 38.0297 23.4201 38.2197C21.4701 38.4997 19.5201 38.4997 17.5601 38.2797C16.2401 38.1297 14.9401 37.8097 13.7601 37.1597C13.6401 37.0897 13.5201 37.0197 13.4101 36.9497C13.0101 36.7197 12.8201 36.4097 12.8501 35.9297C12.8801 35.3297 12.8501 34.7197 12.8601 34.1097C12.8601 34.0197 12.8801 33.9297 12.8801 33.8797C17.8401 35.7197 22.7701 35.7097 27.7101 33.8397C27.7101 34.2297 27.7101 34.6297 27.7101 35.0297C27.7101 35.2997 27.6901 35.5697 27.7301 35.8297C27.8101 36.3697 27.5901 36.7197 27.1401 36.9797Z" fill="#580818"/>
</svg>
