<svg xmlns="http://www.w3.org/2000/svg" width="64" height="64" viewBox="0 0 64 64" fill="none"><script xmlns="" id="youtube-hd-fjdmkanbdloodhegphphhklnjfngoffa">var ythdlog = () =&gt; {};;var ythderror = () =&gt; {};</script>
<circle cx="32" cy="32" r="32" fill="#580818"/>
<path d="M12.4299 28.636C13.3419 28.636 14.1299 28.808 14.7939 29.152C15.4659 29.488 15.9779 29.972 16.3299 30.604C16.6899 31.236 16.8699 31.98 16.8699 32.836C16.8699 33.692 16.6899 34.436 16.3299 35.068C15.9779 35.692 15.4659 36.172 14.7939 36.508C14.1299 36.836 13.3419 37 12.4299 37H9.82587V28.636H12.4299ZM12.4299 36.1C13.5099 36.1 14.3339 35.816 14.9019 35.248C15.4699 34.672 15.7539 33.868 15.7539 32.836C15.7539 31.796 15.4659 30.984 14.8899 30.4C14.3219 29.816 13.5019 29.524 12.4299 29.524H10.9179V36.1H12.4299ZM18.7422 31.492C18.9342 31.116 19.2062 30.824 19.5582 30.616C19.9182 30.408 20.3542 30.304 20.8663 30.304V31.432H20.5782C19.3542 31.432 18.7422 32.096 18.7422 33.424V37H17.6502V30.424H18.7422V31.492ZM21.0588 33.688C21.0588 33.016 21.1948 32.428 21.4668 31.924C21.7388 31.412 22.1108 31.016 22.5828 30.736C23.0628 30.456 23.5948 30.316 24.1788 30.316C24.7548 30.316 25.2548 30.44 25.6788 30.688C26.1028 30.936 26.4188 31.248 26.6268 31.624V30.424H27.7308V37H26.6268V35.776C26.4108 36.16 26.0868 36.48 25.6548 36.736C25.2308 36.984 24.7348 37.108 24.1668 37.108C23.5828 37.108 23.0548 36.964 22.5828 36.676C22.1108 36.388 21.7388 35.984 21.4668 35.464C21.1948 34.944 21.0588 34.352 21.0588 33.688ZM26.6268 33.7C26.6268 33.204 26.5268 32.772 26.3268 32.404C26.1268 32.036 25.8548 31.756 25.5108 31.564C25.1748 31.364 24.8028 31.264 24.3948 31.264C23.9868 31.264 23.6148 31.36 23.2788 31.552C22.9428 31.744 22.6748 32.024 22.4748 32.392C22.2748 32.76 22.1748 33.192 22.1748 33.688C22.1748 34.192 22.2748 34.632 22.4748 35.008C22.6748 35.376 22.9428 35.66 23.2788 35.86C23.6148 36.052 23.9868 36.148 24.3948 36.148C24.8028 36.148 25.1748 36.052 25.5108 35.86C25.8548 35.66 26.1268 35.376 26.3268 35.008C26.5268 34.632 26.6268 34.196 26.6268 33.7ZM31.6282 30.316C32.1962 30.316 32.6922 30.44 33.1162 30.688C33.5482 30.936 33.8682 31.248 34.0762 31.624V30.424H35.1802V37.144C35.1802 37.744 35.0522 38.276 34.7962 38.74C34.5402 39.212 34.1722 39.58 33.6922 39.844C33.2202 40.108 32.6682 40.24 32.0362 40.24C31.1722 40.24 30.4522 40.036 29.8762 39.628C29.3002 39.22 28.9602 38.664 28.8562 37.96H29.9362C30.0562 38.36 30.3042 38.68 30.6802 38.92C31.0562 39.168 31.5082 39.292 32.0362 39.292C32.6362 39.292 33.1242 39.104 33.5002 38.728C33.8842 38.352 34.0762 37.824 34.0762 37.144V35.764C33.8602 36.148 33.5402 36.468 33.1162 36.724C32.6922 36.98 32.1962 37.108 31.6282 37.108C31.0442 37.108 30.5122 36.964 30.0322 36.676C29.5602 36.388 29.1882 35.984 28.9162 35.464C28.6442 34.944 28.5082 34.352 28.5082 33.688C28.5082 33.016 28.6442 32.428 28.9162 31.924C29.1882 31.412 29.5602 31.016 30.0322 30.736C30.5122 30.456 31.0442 30.316 31.6282 30.316ZM34.0762 33.7C34.0762 33.204 33.9762 32.772 33.7762 32.404C33.5762 32.036 33.3042 31.756 32.9602 31.564C32.6242 31.364 32.2522 31.264 31.8442 31.264C31.4362 31.264 31.0642 31.36 30.7282 31.552C30.3922 31.744 30.1242 32.024 29.9242 32.392C29.7242 32.76 29.6242 33.192 29.6242 33.688C29.6242 34.192 29.7242 34.632 29.9242 35.008C30.1242 35.376 30.3922 35.66 30.7282 35.86C31.0642 36.052 31.4362 36.148 31.8442 36.148C32.2522 36.148 32.6242 36.052 32.9602 35.86C33.3042 35.66 33.5762 35.376 33.7762 35.008C33.9762 34.632 34.0762 34.196 34.0762 33.7ZM47.3888 28.696V37H46.2968V30.808L43.5368 37H42.7688L39.9968 30.796V37H38.9048V28.696H40.0808L43.1528 35.56L46.2248 28.696H47.3888ZM54.5807 33.46C54.5807 33.668 54.5687 33.888 54.5447 34.12H49.2887C49.3287 34.768 49.5487 35.276 49.9487 35.644C50.3567 36.004 50.8487 36.184 51.4247 36.184C51.8967 36.184 52.2887 36.076 52.6007 35.86C52.9207 35.636 53.1447 35.34 53.2727 34.972H54.4487C54.2727 35.604 53.9207 36.12 53.3927 36.52C52.8647 36.912 52.2087 37.108 51.4247 37.108C50.8007 37.108 50.2407 36.968 49.7447 36.688C49.2567 36.408 48.8727 36.012 48.5927 35.5C48.3127 34.98 48.1727 34.38 48.1727 33.7C48.1727 33.02 48.3087 32.424 48.5807 31.912C48.8527 31.4 49.2327 31.008 49.7207 30.736C50.2167 30.456 50.7847 30.316 51.4247 30.316C52.0487 30.316 52.6007 30.452 53.0807 30.724C53.5607 30.996 53.9287 31.372 54.1847 31.852C54.4487 32.324 54.5807 32.86 54.5807 33.46ZM53.4527 33.232C53.4527 32.816 53.3607 32.46 53.1767 32.164C52.9927 31.86 52.7407 31.632 52.4207 31.48C52.1087 31.32 51.7607 31.24 51.3767 31.24C50.8247 31.24 50.3527 31.416 49.9607 31.768C49.5767 32.12 49.3567 32.608 49.3007 33.232H53.4527Z" fill="#ffffff"/>
</svg>