<svg width="29" height="34" viewBox="0 0 29 34" fill="none" xmlns="http://www.w3.org/2000/svg">
<path d="M28.4502 31.6402C28.3702 32.3602 27.9602 32.8902 27.3102 33.2302C26.9702 33.4102 26.6102 33.5002 26.2202 33.4802C26.1402 33.4802 26.0702 33.4802 25.9902 33.4802H3.54018C3.21018 33.4802 2.89018 33.5002 2.56018 33.4102C1.71018 33.1702 1.03018 32.3402 1.00018 31.4502C0.970178 30.5802 1.00018 29.7002 1.20018 28.8502C1.43018 27.9102 1.85018 27.0602 2.41018 26.2702C3.10018 25.3102 3.97018 24.5602 5.02018 24.0202C5.83018 23.6002 6.68018 23.3302 7.59018 23.2602C8.20018 23.2102 8.81018 23.2302 9.41018 23.2202C9.55018 23.2202 9.62018 23.2602 9.70018 23.3702C10.2602 24.2102 10.8302 25.0502 11.4002 25.8902C11.9202 26.6502 12.4402 27.4102 12.9602 28.1702C13.5902 29.0902 14.2202 30.0002 14.8502 30.9202C14.8702 30.9402 14.8802 30.9602 14.9102 31.0002C15.0402 30.7802 15.1602 30.5702 15.2802 30.3602C15.6502 29.7102 16.0302 29.0502 16.4002 28.4002C17.0202 27.3102 17.6402 26.2102 18.2602 25.1202C18.6002 24.5202 18.9402 23.9302 19.2702 23.3302C19.3102 23.2602 19.3602 23.2302 19.4402 23.2302C20.0602 23.2302 20.6802 23.2302 21.3002 23.2502C22.3002 23.2602 23.2602 23.4802 24.1702 23.9002C25.5502 24.5502 26.6502 25.5302 27.4402 26.8402C27.9402 27.6902 28.2802 28.6002 28.4102 29.5802C28.5002 30.2702 28.5302 30.9702 28.4502 31.6602V31.6402Z" fill="#ffffff"/>
<path d="M28.3702 6.01018C28.1802 5.94018 27.9902 5.87018 27.7902 5.80018C26.2002 5.20018 24.6002 4.61018 23.0102 4.01018C20.3402 3.01018 17.6702 2.02018 15.0002 1.03018C14.8902 0.980176 14.8002 0.980176 14.6902 1.03018C13.1702 1.60018 11.6402 2.17018 10.1202 2.74018C7.27021 3.80018 4.42021 4.87018 1.57021 5.93018C1.46021 5.97018 1.35021 6.01018 1.22021 6.06018C1.28021 6.09018 1.31021 6.11018 1.35021 6.12018L4.55021 7.31018C5.44021 7.64018 6.33021 7.97018 7.22021 8.31018C7.35021 8.36018 7.45022 8.36018 7.59022 8.31018C7.99022 8.17018 8.39022 8.02018 8.80022 7.90018C9.78022 7.60018 10.7802 7.35018 11.8002 7.20018C12.4002 7.12018 13.0002 7.04018 13.6002 7.00018C14.7002 6.93018 15.8002 6.94018 16.9102 7.00018C17.9902 7.05018 19.0602 7.19018 20.1202 7.41018C21.0202 7.59018 21.9102 7.83018 22.7802 8.11018C22.8402 8.13018 22.9202 8.13018 22.9902 8.11018C23.6102 7.88018 24.2302 7.65018 24.8502 7.42018L27.8802 6.29018C28.0902 6.22018 28.2902 6.15018 28.4902 6.06018V6.03018C28.4902 6.03018 28.4302 5.99018 28.3902 5.98018L28.3702 6.01018ZM22.2502 12.1502V10.2302C22.2502 10.1402 22.2302 10.1002 22.1502 10.0802C21.7302 9.92018 21.3102 9.75018 20.8802 9.59018C19.8502 9.22018 18.7802 8.97018 17.7002 8.80018C17.3502 8.75018 17.0002 8.70018 16.6302 8.66018C16.1802 8.62018 15.7302 8.57018 15.2702 8.58018C14.2602 8.60018 13.2502 8.67018 12.2602 8.84018C11.3702 8.98018 10.5002 9.19018 9.63021 9.42018C8.85021 9.61018 8.14021 9.99018 7.33021 10.0802C7.23022 10.0802 7.21022 10.1502 7.21022 10.2402C7.21022 11.1202 7.21022 12.0002 7.21022 12.8802C7.21022 13.7502 7.26021 14.6102 7.41021 15.4602C7.65021 16.8202 8.10021 18.0902 8.77022 19.2802C9.45022 20.4602 10.3202 21.4702 11.4702 22.2202C12.3102 22.7702 13.2402 23.1102 14.2402 23.2002C15.5502 23.3002 16.7502 22.9702 17.8602 22.2902C18.6202 21.8202 19.2602 21.2102 19.8102 20.5202C20.7702 19.3102 21.4002 17.9402 21.7902 16.4502C21.9902 15.6902 22.1202 14.9102 22.1702 14.1402C22.2102 13.4802 22.2102 12.8202 22.2202 12.1502H22.2502Z" fill="#ffffff"/>
<path d="M28.4702 6.05V6.08C28.2702 6.16 28.0702 6.23 27.8702 6.3L24.8402 7.43C24.2202 7.66 23.6002 7.89 22.9802 8.12C22.9202 8.14 22.8302 8.14 22.7702 8.12C21.9002 7.83 21.0102 7.6 20.1202 7.42C19.0602 7.2 17.9902 7.06 16.9102 7.01C15.8102 6.96 14.7002 6.95 13.6002 7.02C13.0002 7.06 12.4002 7.14 11.8002 7.22C10.7802 7.37 9.78022 7.62 8.80022 7.91C8.39022 8.03 7.99022 8.17 7.59022 8.32C7.46022 8.37 7.34022 8.36 7.21022 8.31C6.32022 7.98 5.43021 7.65 4.54021 7.31L1.34021 6.12C1.34021 6.12 1.27021 6.09 1.22021 6.06C1.35021 6.01 1.46021 5.97 1.56021 5.93C4.41021 4.87 7.27021 3.8 10.1202 2.74C11.6402 2.17 13.1702 1.6 14.6902 1.03C14.7902 0.99 14.8802 0.99 14.9902 1.03C17.6602 2.03 20.3302 3.02 22.9902 4.01C24.5902 4.61 26.1802 5.21 27.7802 5.8C27.9702 5.87 28.1602 5.94 28.3502 6.01C28.3802 6.02 28.4102 6.04 28.4502 6.05H28.4702Z" fill="#ffffff"/>
<path d="M22.2702 12.1502C22.2502 12.8102 22.2502 13.4802 22.2102 14.1402C22.1602 14.9202 22.0302 15.6902 21.8402 16.4502C21.4502 17.9402 20.8202 19.3102 19.8602 20.5202C19.3102 21.2202 18.6702 21.8202 17.9002 22.2902C16.7902 22.9702 15.5902 23.3102 14.2802 23.2002C13.2702 23.1202 12.3502 22.7802 11.5002 22.2302C10.3502 21.4802 9.48022 20.4802 8.80022 19.2902C8.12022 18.1002 7.68022 16.8202 7.43022 15.4702C7.28022 14.6202 7.23022 13.7602 7.23022 12.9002C7.23022 12.0202 7.23022 11.1402 7.23022 10.2602C7.23022 10.1702 7.25022 10.1102 7.35022 10.1002C8.15022 10.0102 8.87022 9.63023 9.65022 9.44023C10.5202 9.22023 11.3902 9.01023 12.2802 8.86023C13.2802 8.69023 14.2802 8.62023 15.2902 8.60023C15.7402 8.59023 16.2002 8.65023 16.6502 8.69023C17.0002 8.72023 17.3602 8.77023 17.7102 8.82023C18.8002 8.99023 19.8602 9.24023 20.9002 9.61023C21.3302 9.76023 21.7502 9.93023 22.1702 10.0902C22.2502 10.1202 22.2702 10.1602 22.2702 10.2402C22.2702 10.8802 22.2702 11.5202 22.2702 12.1602H22.2802L22.2702 12.1502Z" fill="#ffffff"/>
<path d="M3.46013 17.5702C3.00013 17.5702 2.63013 17.2002 2.63013 16.7402V7.9502L4.28013 8.6402V16.7402C4.28013 17.2002 3.91013 17.5702 3.45013 17.5702H3.46013Z" fill="#ffffff"/>
</svg>
