<svg xmlns="http://www.w3.org/2000/svg" width="198" height="255" viewBox="0 0 198 255" version="1.1"><path d="M 143.820 13.340 L 124.140 22.500 119.089 32.899 C 114.083 43.205, 113.966 43.345, 106.045 48.649 C 101.649 51.592, 97.758 54, 97.398 54 C 97.038 54, 93.051 51.682, 88.538 48.849 C 80.481 43.793, 80.233 43.515, 74.916 33.636 L 69.500 23.574 50 14.949 C 39.275 10.205, 30.377 6.618, 30.227 6.980 C 29.565 8.573, 32.929 21.236, 34.300 22.310 C 35.135 22.964, 38.823 25.972, 42.495 28.994 C 47.468 33.086, 51.123 35.128, 56.819 36.994 L 64.467 39.500 70.007 48.965 L 75.548 58.429 86.434 63.287 L 97.321 68.145 107.910 63.233 L 118.500 58.320 124.108 48.410 L 129.717 38.500 137.499 35.739 C 143.628 33.565, 147.055 31.485, 153.632 25.946 C 158.226 22.078, 162.202 17.921, 162.468 16.707 C 163.787 10.702, 164.660 4.010, 164.113 4.090 C 163.776 4.139, 154.644 8.302, 143.820 13.340 M 116 14.642 C 111.875 17.166, 108.343 19.373, 108.151 19.548 C 107.517 20.124, 98.868 49.201, 99.224 49.558 C 99.417 49.750, 102.452 48.016, 105.969 45.705 C 112.073 41.693, 112.578 41.043, 117.101 31.383 C 119.706 25.817, 122.162 19.067, 122.558 16.382 C 122.954 13.697, 123.778 11.169, 124.389 10.765 C 125.014 10.352, 125.063 10.036, 124.500 10.042 C 123.950 10.049, 120.125 12.119, 116 14.642 M 71.591 17.131 C 72.019 20.454, 74.108 26.156, 77.073 32.095 C 81.630 41.225, 82.188 41.895, 88.556 45.887 C 92.237 48.195, 95.389 49.944, 95.560 49.774 C 96.132 49.201, 86.811 21.514, 85.648 20.336 C 85.017 19.696, 81.440 17.504, 77.700 15.466 L 70.899 11.761 71.591 17.131 M 156.391 28.947 C 154.681 29.356, 151.674 30.973, 149.708 32.541 C 147.742 34.110, 142.852 36.542, 138.841 37.947 L 131.547 40.500 124.388 53.311 C 118.299 64.209, 116.474 66.652, 112.170 69.664 C 107.577 72.880, 106.877 73.904, 104.555 80.810 L 101.998 88.414 105.702 92.207 C 107.739 94.293, 109.795 96, 110.270 96 C 110.746 96, 113.983 94.315, 117.464 92.256 L 123.794 88.512 126.045 78.506 C 127.282 73.003, 128.490 67.967, 128.729 67.315 C 129.005 66.563, 127.766 66.016, 125.332 65.815 L 121.500 65.500 133.352 57.099 C 143.040 50.231, 146.520 47.036, 152.415 39.599 C 162.517 26.853, 162.259 27.546, 156.391 28.947 M 92.184 30 C 92.472 30.825, 93.731 34.601, 94.982 38.391 L 97.257 45.282 99.615 37.891 C 102.465 28.959, 102.519 28.220, 100.171 30.345 C 97.834 32.461, 96.155 32.436, 93.659 30.250 C 92.099 28.883, 91.776 28.829, 92.184 30 M 40.742 39.625 C 47.640 48.061, 50.767 50.885, 61.140 58.044 L 73.391 66.500 69.696 66.810 C 65.229 67.185, 65.220 67.324, 68.817 79.829 L 71.500 89.158 78.202 92.829 L 84.905 96.499 88.871 92.626 L 92.837 88.753 90.169 81.144 C 87.734 74.202, 87.045 73.226, 82.317 70.017 C 77.892 67.014, 76.071 64.657, 69.855 53.888 L 62.575 41.276 55.494 39.192 C 51.599 38.046, 46.682 35.734, 44.568 34.054 C 42.455 32.374, 39.999 30.994, 39.112 30.986 C 38.226 30.979, 36.396 30.678, 35.048 30.317 C 33.063 29.786, 34.148 31.560, 40.742 39.625 M 153.815 42.081 C 149.191 48.046, 145.114 51.889, 138.241 56.761 C 130.333 62.367, 129.139 63.568, 130.309 64.738 C 131.480 65.908, 133.057 65.878, 140.783 64.538 L 149.878 62.960 156.210 65.494 C 161.043 67.429, 165.316 68.207, 174.271 68.781 C 180.722 69.194, 186.002 69.300, 186.005 69.016 C 186.008 68.732, 183.196 62.011, 179.755 54.079 L 173.500 39.659 167.272 36.829 C 163.847 35.273, 160.827 34, 160.561 34 C 160.296 34, 157.260 37.636, 153.815 42.081 M 27.043 38.919 L 21.585 41.744 15.316 56.979 L 9.047 72.214 12.274 71.654 C 14.048 71.345, 19.325 70.779, 24 70.396 C 29.763 69.923, 34.593 68.816, 39 66.958 C 45.464 64.233, 45.547 64.226, 53.983 65.591 C 61.493 66.806, 62.639 66.787, 63.983 65.425 C 65.329 64.060, 65.331 63.789, 64 63.015 C 55.583 58.121, 46.107 50.212, 40.800 43.652 C 37.395 39.443, 34.135 36.021, 33.555 36.047 C 32.975 36.073, 30.044 37.365, 27.043 38.919 M 106.376 66.586 L 97.251 70.999 88.045 66.913 C 82.982 64.666, 78.616 63.051, 78.343 63.324 C 78.069 63.597, 80.513 65.632, 83.774 67.846 C 89.506 71.739, 89.803 72.162, 92.796 80.686 L 95.890 89.500 91.307 94.174 L 86.724 98.848 87.848 103.312 C 88.946 107.672, 88.857 107.983, 83.986 116.736 C 79.051 125.603, 79.014 125.737, 80.391 129.598 C 81.951 133.974, 81.769 133.962, 91.207 130.312 L 97.913 127.718 105.643 130.866 C 114.026 134.280, 114.366 134.194, 115.459 128.369 C 115.966 125.666, 115.203 123.583, 111.005 116.199 C 106.559 108.379, 106.065 106.958, 106.970 104.580 C 108.718 99.981, 108.160 98.262, 103.472 93.805 L 98.944 89.500 101.989 80.500 C 104.901 71.892, 105.272 71.334, 110.517 67.690 C 113.533 65.595, 116 63.457, 116 62.940 C 116 62.423, 115.888 62.039, 115.750 62.086 C 115.612 62.133, 111.394 64.158, 106.376 66.586 M 140.131 67.214 L 134.763 68.190 139.582 73.084 C 143.746 77.311, 144.640 77.808, 146.149 76.738 C 147.109 76.057, 149.669 74.236, 151.837 72.691 L 155.778 69.882 169.041 74.941 C 176.335 77.723, 182.466 80, 182.666 80 C 182.865 80, 181.871 78.251, 180.456 76.113 C 177.702 71.951, 175.265 71, 167.355 71 C 164.938 71, 160.192 69.875, 156.808 68.500 C 150.228 65.827, 148.495 65.693, 140.131 67.214 M 39 69.692 C 35.306 71.419, 31.104 72.428, 26.206 72.766 L 18.911 73.269 15.908 77.634 C 14.256 80.035, 13.173 82, 13.503 82 C 13.832 82, 18.242 80.246, 23.301 78.101 C 41.865 70.234, 39.118 70.612, 45.129 75.096 L 50.401 79.030 55.227 74.277 C 60.718 68.868, 60.700 68.844, 49.952 67.701 C 45.417 67.219, 43.575 67.554, 39 69.692 M 130.015 73.099 C 129.386 75.519, 128.484 78.974, 128.009 80.776 L 127.147 84.052 130.920 81.064 C 137.581 75.788, 137.757 75.296, 134.251 71.789 L 131.159 68.697 130.015 73.099 M 59.625 72.869 L 56.876 75.739 61.653 79.821 C 64.280 82.067, 66.582 83.752, 66.768 83.566 C 67.297 83.036, 63.655 70, 62.978 70 C 62.646 70, 61.137 71.291, 59.625 72.869 M 151.388 76.089 C 146.938 79.626, 146.563 81.089, 149.750 82.487 C 150.988 83.030, 152 83.787, 152 84.168 C 152 84.550, 155.557 87.369, 159.905 90.433 C 167.663 95.900, 168.025 96.349, 179.481 114.752 C 186.674 126.307, 190.947 132.349, 190.618 130.500 C 190.324 128.850, 189.130 118.500, 187.964 107.500 C 186.799 96.500, 185.486 86.590, 185.047 85.477 C 184.472 84.018, 180.384 81.996, 170.375 78.220 C 162.744 75.341, 156.224 72.989, 155.888 72.993 C 155.551 72.997, 153.526 74.390, 151.388 76.089 M 25.781 79.848 C 18.281 82.968, 11.908 85.758, 11.619 86.048 C 11.098 86.569, 6.870 133.204, 7.305 133.638 C 7.428 133.762, 12.248 125.577, 18.015 115.450 C 27.703 98.436, 28.956 96.700, 34.500 92.609 C 42.120 86.986, 48 81.948, 48 81.042 C 48 80.655, 46.069 78.952, 43.708 77.257 L 39.416 74.174 25.781 79.848 M 132.674 82.817 L 125.872 88.500 130.959 89.394 C 135.337 90.164, 136.829 89.955, 141.657 87.894 C 144.743 86.578, 147.250 85.050, 147.227 84.500 C 147.205 83.950, 145.451 82.068, 143.331 80.317 L 139.476 77.134 132.674 82.817 M 51.493 82.007 C 49.368 84.183, 47.826 86.138, 48.065 86.352 C 48.304 86.566, 50.575 87.646, 53.111 88.753 C 56.774 90.351, 58.915 90.635, 63.518 90.132 L 69.312 89.500 63.906 84.984 C 54.741 77.328, 55.811 77.585, 51.493 82.007 M 142.500 90.153 C 140.300 91.288, 136.925 93.679, 135 95.465 C 133.075 97.252, 129.339 100.166, 126.697 101.941 C 122.909 104.487, 122.132 105.454, 123.017 106.520 C 123.846 107.520, 123.846 108.420, 123.014 109.974 C 122.034 111.806, 122.553 112.871, 127.061 118.287 C 129.905 121.704, 132.520 124.613, 132.873 124.752 C 133.225 124.891, 136.346 120.280, 139.808 114.506 C 145.860 104.413, 147.974 98.150, 147.994 90.250 C 148.001 87.528, 147.599 87.521, 142.500 90.153 M 151 89.932 C 151 91.086, 153.677 97.311, 156.949 103.765 C 162.805 115.317, 163.022 115.590, 170.949 121.265 L 179 127.029 179 123.028 C 179 119.849, 177.642 116.818, 172.386 108.264 C 166.650 98.929, 164.903 96.902, 159.230 93 C 151.103 87.409, 151 87.371, 151 89.932 M 36.865 94.086 C 31.007 98.455, 29.507 100.325, 24.057 110.058 C 19.140 118.838, 17.947 121.806, 18.192 124.646 L 18.500 128.212 26.037 122.186 C 33.309 116.373, 33.768 115.744, 39.122 104.286 C 46.208 89.120, 45.828 87.402, 36.865 94.086 M 47 90.193 C 47 90.822, 47.514 94.288, 48.142 97.895 C 49.028 102.982, 50.733 106.895, 55.740 115.329 C 59.290 121.311, 62.517 125.821, 62.911 125.352 C 65.904 121.790, 71.792 114.273, 72.376 113.271 C 72.770 112.595, 72.620 111.159, 72.044 110.081 C 71.347 108.780, 71.332 107.913, 71.997 107.502 C 73.853 106.355, 73.023 105.204, 68.375 102.480 C 65.832 100.989, 62.119 98.311, 60.125 96.529 C 54.765 91.738, 47 87.989, 47 90.193 M 63.500 92.882 L 60.500 93.526 62.973 95.263 C 64.332 96.218, 66.807 97.005, 68.473 97.011 C 75.724 97.037, 79.172 98.235, 81.101 101.398 C 82.141 103.104, 82.994 104.780, 82.996 105.122 C 82.998 105.464, 81.226 106.028, 79.057 106.375 C 74.753 107.063, 73.683 108.010, 74.577 110.340 C 75.077 111.643, 79.852 114, 81.992 114 C 82.373 114, 83.477 112.530, 84.444 110.734 C 85.933 107.969, 86.029 106.823, 85.072 103.266 C 84.071 99.550, 83.210 98.656, 77.624 95.532 C 71.358 92.028, 69.282 91.639, 63.500 92.882 M 117.042 95.443 C 110.005 99.823, 108.001 104.443, 110.615 110.250 C 112.507 114.451, 112.930 114.605, 116.928 112.537 C 121.990 109.920, 121.413 106, 115.967 106 C 112.321 106, 111.847 105.196, 113.550 101.903 C 115.473 98.185, 117.188 97.376, 125 96.503 C 135.299 95.353, 137.742 91.985, 128.250 92.023 C 123.472 92.041, 121.578 92.619, 117.042 95.443 M 149.449 99.354 C 149.021 101.054, 149.463 105.698, 150.543 110.844 L 152.356 119.480 165.059 132.990 C 172.046 140.421, 178.941 147.591, 180.381 148.924 L 183 151.349 182.901 146.924 C 182.847 144.491, 182.509 140.158, 182.151 137.295 L 181.500 132.090 171 124.295 C 160.619 116.588, 160.442 116.387, 155.334 106.500 C 150.492 97.128, 150.123 96.679, 149.449 99.354 M 40.238 108 C 35.196 118.486, 35.175 118.511, 25.094 126.298 L 15 134.096 15 143.262 C 15 151.007, 15.209 152.202, 16.348 150.964 C 17.089 150.159, 23.532 142.954, 30.665 134.953 L 43.634 120.405 45.235 112.421 C 46.254 107.345, 46.555 103.174, 46.063 100.969 C 45.289 97.503, 45.284 97.509, 40.238 108 M 120.335 99.717 C 118.594 99.935, 116.935 100.726, 116.648 101.474 C 115.681 103.994, 119.099 104.005, 122.796 101.493 C 124.813 100.122, 125.797 99.072, 124.982 99.160 C 124.167 99.248, 122.076 99.499, 120.335 99.717 M 72.500 102 C 77.067 105.025, 81.027 104.427, 77.800 101.200 C 77.140 100.540, 75.002 100.003, 73.050 100.007 L 69.500 100.013 72.500 102 M 140.674 118.017 C 135.817 126.264, 134.684 129.095, 133.858 135.055 C 133.314 138.985, 133.010 142.335, 133.184 142.499 C 133.358 142.662, 137.206 137.674, 141.736 131.415 L 149.973 120.034 148.819 114.767 C 148.184 111.870, 147.403 109.191, 147.082 108.813 C 146.762 108.435, 143.878 112.576, 140.674 118.017 M 47.544 113.553 C 47.156 116.139, 46.635 118.787, 46.386 119.437 C 45.977 120.501, 61.851 143.532, 62.493 142.805 C 62.641 142.637, 62.350 139.485, 61.846 135.799 C 61.109 130.409, 59.861 127.290, 55.463 119.848 C 52.456 114.759, 49.603 110.203, 49.123 109.723 C 48.625 109.225, 47.946 110.872, 47.544 113.553 M 69.489 121.100 L 63.789 128.155 64.492 133.780 L 65.195 139.406 69.525 134.453 C 71.907 131.729, 75.433 126.683, 77.360 123.241 L 80.864 116.981 78.026 115.513 L 75.188 114.046 69.489 121.100 M 117.250 115.220 C 114.392 116.599, 114.424 117.146, 117.699 122.822 C 120.052 126.901, 130.222 140.184, 130.608 139.683 C 130.686 139.582, 131.054 136.985, 131.427 133.910 L 132.104 128.320 126.302 121.217 C 123.111 117.310, 120.275 114.118, 120 114.124 C 119.725 114.130, 118.487 114.624, 117.250 115.220 M 150.607 123.583 C 150.240 124.539, 154.097 133.947, 160.143 146.844 C 165.727 158.755, 171.606 171.361, 173.207 174.858 C 174.808 178.355, 176.319 181.014, 176.566 180.768 C 176.812 180.521, 175.849 172.284, 174.425 162.463 C 171.533 142.522, 172.488 144.568, 159.779 131.067 C 153.285 124.169, 151.074 122.365, 150.607 123.583 M 35.500 133.221 C 30.550 138.780, 26.181 143.856, 25.792 144.501 C 24.929 145.929, 20.646 178.980, 21.246 179.580 C 21.481 179.814, 27.157 167.550, 33.860 152.327 C 40.563 137.103, 45.700 124.303, 45.274 123.881 C 44.848 123.459, 40.450 127.663, 35.500 133.221 M 35.856 154.181 L 24.336 180.362 26.366 187.321 C 28.829 195.766, 28.847 195.732, 32.989 175 C 34.692 166.475, 36.296 158.790, 36.555 157.923 C 36.813 157.056, 41.294 152.869, 46.512 148.619 C 51.731 144.370, 56 140.448, 56 139.904 C 56 138.994, 48.294 128, 47.657 128 C 47.503 128, 42.192 139.781, 35.856 154.181 M 143.054 133.750 L 138.950 139.500 141.775 142 C 143.328 143.375, 147.961 147.234, 152.071 150.575 L 159.544 156.651 163.395 174.216 C 165.514 183.877, 167.566 192.298, 167.957 192.930 C 168.348 193.563, 169.609 190.943, 170.767 187.092 L 172.867 180.105 160.684 154.060 C 153.983 139.734, 148.198 128.011, 147.829 128.007 C 147.460 128.003, 145.311 130.588, 143.054 133.750 M 71.197 136.244 C 65.498 142.819, 64.957 143.828, 65.429 147 C 66.519 154.322, 76.829 158.392, 89.789 156.615 C 95.503 155.832, 96.187 155.184, 95.408 151.288 C 94.883 148.665, 94.123 148.014, 90.344 146.956 C 86.888 145.989, 85.230 144.741, 82.901 141.356 C 81.252 138.960, 79.490 137, 78.983 137 C 78.477 137, 78.271 136.438, 78.527 135.750 C 78.782 135.063, 78.652 133.260, 78.238 131.744 C 77.490 129, 77.460 129.019, 71.197 136.244 M 117.412 131.495 C 117.067 132.870, 117.044 134.672, 117.361 135.498 C 117.679 136.327, 117.392 137.001, 116.719 137.002 C 116.048 137.003, 114.257 138.971, 112.738 141.375 C 110.522 144.884, 109.088 145.995, 105.474 147.007 C 100.902 148.287, 99.020 151.004, 100.334 154.428 C 101.081 156.373, 108.761 157.394, 117.282 156.680 C 126.124 155.938, 130 152.914, 130 146.759 C 130 143.474, 129.098 141.843, 124.020 135.943 C 118.328 129.330, 118.009 129.115, 117.412 131.495 M 90.500 133.379 L 85.500 135.636 91 136.881 C 97.880 138.438, 98.319 138.434, 104.901 136.764 L 110.302 135.393 104.562 133.197 C 97.578 130.524, 96.805 130.534, 90.500 133.379 M 84.910 139.832 C 86.361 142.543, 88.027 143.653, 92.750 145.055 C 95.412 145.845, 97.011 146.911, 97.030 147.908 C 97.058 149.350, 97.150 149.348, 98.003 147.888 C 98.521 147.001, 100.996 145.701, 103.503 144.999 C 106.457 144.172, 108.778 142.716, 110.099 140.861 C 111.219 139.288, 111.903 138, 111.617 138 C 108.154 138, 100.216 140.677, 99.144 142.207 C 97.805 144.116, 97.769 144.115, 96.395 142.154 C 95.574 140.982, 92.932 139.722, 89.952 139.083 C 83.537 137.707, 83.756 137.675, 84.910 139.832 M 48.792 150.012 C 39.935 157.378, 39.081 158.402, 38.166 162.761 C 37.618 165.367, 36.157 172.450, 34.917 178.500 L 32.664 189.500 41.082 202.980 L 49.500 216.459 49.765 187.100 L 50.031 157.741 53.792 153.120 C 60.142 145.320, 60.211 145.199, 59.290 143.554 C 58.581 142.287, 56.659 143.469, 48.792 150.012 M 136.152 143.317 C 135.289 144.356, 136.272 146.153, 140.519 151.302 L 146 157.947 146 188.205 L 146 218.464 148.322 214.982 C 149.599 213.067, 153.663 206.530, 157.352 200.456 L 164.061 189.412 160.602 173.611 C 158.701 164.921, 156.999 157.703, 156.822 157.572 C 156.645 157.440, 152.675 154.246, 148 150.475 C 143.325 146.704, 138.997 143.248, 138.383 142.797 C 137.742 142.326, 136.791 142.547, 136.152 143.317 M 133 149.055 C 133 150.324, 131.325 152.742, 128.976 154.864 L 124.952 158.500 134.044 181.484 C 139.044 194.126, 143.217 204.552, 143.318 204.653 C 143.418 204.754, 143.363 194.422, 143.196 181.691 L 142.892 158.545 138.801 153.242 C 133.870 146.850, 133 146.223, 133 149.055 M 57.085 153.131 L 53 158.261 53.079 180.881 C 53.122 193.321, 53.368 203.050, 53.625 202.500 C 53.882 201.950, 57.831 191.825, 62.401 180 L 70.710 158.500 66.855 154.462 C 64.735 152.241, 63 149.879, 63 149.212 C 63 146.826, 61.106 148.081, 57.085 153.131 M 94 159 C 94 159.550, 95.800 160, 98 160 C 100.200 160, 102 159.550, 102 159 C 102 158.450, 100.200 158, 98 158 C 95.800 158, 94 158.450, 94 159 M 74.385 160.562 C 74.723 161.443, 75 162.511, 75 162.935 C 75 163.359, 78.145 165.798, 81.988 168.353 L 88.976 173 98.065 173 L 107.155 173 114.001 168.288 C 118.281 165.343, 121.009 162.731, 121.279 161.321 C 121.704 159.096, 121.596 159.072, 113.110 159.508 C 106.949 159.825, 104.193 160.383, 103.395 161.475 C 101.861 163.572, 93.413 163.560, 92.237 161.460 C 91.599 160.319, 89.093 159.795, 82.573 159.440 C 74.794 159.016, 73.842 159.146, 74.385 160.562 M 62.772 186.215 L 54.044 209.104 61.346 220.032 L 68.648 230.959 70.276 225.730 C 71.172 222.853, 73.573 211.809, 75.612 201.188 L 79.321 181.875 83.700 178.863 L 88.079 175.850 85.789 174.099 C 84.530 173.136, 81.250 170.858, 78.500 169.035 C 75.750 167.213, 73.050 165.183, 72.500 164.524 C 71.795 163.679, 68.926 170.076, 62.772 186.215 M 122.695 164.354 C 122.381 165.172, 119.301 167.790, 115.850 170.171 C 112.400 172.552, 109.110 174.825, 108.538 175.222 C 107.890 175.672, 108.252 176.474, 109.500 177.356 C 115.996 181.944, 115.863 181.632, 120.488 203 C 122.929 214.275, 125.544 225.282, 126.300 227.460 L 127.674 231.420 134.837 220.743 C 138.777 214.871, 142 209.791, 142 209.453 C 142 208.359, 124.766 164.526, 124.004 163.683 C 123.598 163.233, 123.009 163.535, 122.695 164.354 M 94.556 178.250 C 94.936 179.488, 95.811 181.850, 96.501 183.500 L 97.754 186.500 98.869 183.706 C 99.482 182.169, 100.261 179.807, 100.600 178.456 C 101.171 176.182, 100.945 176, 97.541 176 C 94.191 176, 93.926 176.199, 94.556 178.250 M 86.256 180.095 C 83.922 181.748, 81.778 184.091, 81.492 185.300 C 81.206 186.510, 79.424 195.232, 77.534 204.682 L 74.096 221.863 76.536 230.682 C 77.877 235.532, 78.981 240.963, 78.988 242.750 C 79.005 247.230, 80.279 246.818, 82.076 241.750 C 83.191 238.607, 83.442 235.095, 83.042 228.264 L 82.500 219.029 89.814 209.514 C 93.837 204.281, 97.476 200, 97.900 200 C 98.324 200, 102.008 204.297, 106.086 209.548 L 113.500 219.097 113.159 228.798 C 112.884 236.611, 113.194 239.454, 114.753 243.403 L 116.689 248.306 117.357 242.617 C 117.725 239.488, 118.920 233.669, 120.013 229.686 L 122 222.444 118 203.999 C 115.800 193.854, 114 185.225, 114 184.823 C 114 183.516, 104.670 176.928, 103.948 177.726 C 103.563 178.152, 102.236 181.650, 101 185.500 C 99.764 189.350, 98.451 192.835, 98.083 193.244 C 97.714 193.653, 96.088 190.165, 94.469 185.494 C 92.849 180.822, 91.294 177.020, 91.012 177.045 C 90.730 177.069, 88.590 178.442, 86.256 180.095 M 93.496 209.005 L 89.822 214.010 94.010 219.012 L 98.197 224.013 102.195 218.992 L 106.193 213.971 102.391 208.986 C 100.300 206.244, 98.270 204, 97.880 204 C 97.490 204, 95.517 206.252, 93.496 209.005" stroke="none" fill="#930b0b" fill-rule="evenodd"/><path d="M 0 127.505 L 0 255.010 99.250 254.755 L 198.500 254.500 198.754 127.250 L 199.008 0 99.504 0 L 0 0 0 127.505 M 0.485 128 C 0.485 198.125, 0.604 226.813, 0.750 191.750 C 0.896 156.688, 0.896 99.313, 0.750 64.250 C 0.604 29.188, 0.485 57.875, 0.485 128 M 143.820 13.340 L 124.140 22.500 119.089 32.899 C 114.083 43.205, 113.966 43.345, 106.045 48.649 C 101.649 51.592, 97.758 54, 97.398 54 C 97.038 54, 93.051 51.682, 88.538 48.849 C 80.481 43.793, 80.233 43.515, 74.916 33.636 L 69.500 23.574 50 14.949 C 39.275 10.205, 30.377 6.618, 30.227 6.980 C 29.565 8.573, 32.929 21.236, 34.300 22.310 C 35.135 22.964, 38.823 25.972, 42.495 28.994 C 47.468 33.086, 51.123 35.128, 56.819 36.994 L 64.467 39.500 70.007 48.965 L 75.548 58.429 86.434 63.287 L 97.321 68.145 107.910 63.233 L 118.500 58.320 124.108 48.410 L 129.717 38.500 137.499 35.739 C 143.628 33.565, 147.055 31.485, 153.632 25.946 C 158.226 22.078, 162.202 17.921, 162.468 16.707 C 163.787 10.702, 164.660 4.010, 164.113 4.090 C 163.776 4.139, 154.644 8.302, 143.820 13.340 M 116 14.642 C 111.875 17.166, 108.343 19.373, 108.151 19.548 C 107.517 20.124, 98.868 49.201, 99.224 49.558 C 99.417 49.750, 102.452 48.016, 105.969 45.705 C 112.073 41.693, 112.578 41.043, 117.101 31.383 C 119.706 25.817, 122.162 19.067, 122.558 16.382 C 122.954 13.697, 123.778 11.169, 124.389 10.765 C 125.014 10.352, 125.063 10.036, 124.500 10.042 C 123.950 10.049, 120.125 12.119, 116 14.642 M 71.591 17.131 C 72.019 20.454, 74.108 26.156, 77.073 32.095 C 81.630 41.225, 82.188 41.895, 88.556 45.887 C 92.237 48.195, 95.389 49.944, 95.560 49.774 C 96.132 49.201, 86.811 21.514, 85.648 20.336 C 85.017 19.696, 81.440 17.504, 77.700 15.466 L 70.899 11.761 71.591 17.131 M 156.391 28.947 C 154.681 29.356, 151.674 30.973, 149.708 32.541 C 147.742 34.110, 142.852 36.542, 138.841 37.947 L 131.547 40.500 124.388 53.311 C 118.299 64.209, 116.474 66.652, 112.170 69.664 C 107.577 72.880, 106.877 73.904, 104.555 80.810 L 101.998 88.414 105.702 92.207 C 107.739 94.293, 109.795 96, 110.270 96 C 110.746 96, 113.983 94.315, 117.464 92.256 L 123.794 88.512 126.045 78.506 C 127.282 73.003, 128.490 67.967, 128.729 67.315 C 129.005 66.563, 127.766 66.016, 125.332 65.815 L 121.500 65.500 133.352 57.099 C 143.040 50.231, 146.520 47.036, 152.415 39.599 C 162.517 26.853, 162.259 27.546, 156.391 28.947 M 92.184 30 C 92.472 30.825, 93.731 34.601, 94.982 38.391 L 97.257 45.282 99.615 37.891 C 102.465 28.959, 102.519 28.220, 100.171 30.345 C 97.834 32.461, 96.155 32.436, 93.659 30.250 C 92.099 28.883, 91.776 28.829, 92.184 30 M 40.742 39.625 C 47.640 48.061, 50.767 50.885, 61.140 58.044 L 73.391 66.500 69.696 66.810 C 65.229 67.185, 65.220 67.324, 68.817 79.829 L 71.500 89.158 78.202 92.829 L 84.905 96.499 88.871 92.626 L 92.837 88.753 90.169 81.144 C 87.734 74.202, 87.045 73.226, 82.317 70.017 C 77.892 67.014, 76.071 64.657, 69.855 53.888 L 62.575 41.276 55.494 39.192 C 51.599 38.046, 46.682 35.734, 44.568 34.054 C 42.455 32.374, 39.999 30.994, 39.112 30.986 C 38.226 30.979, 36.396 30.678, 35.048 30.317 C 33.063 29.786, 34.148 31.560, 40.742 39.625 M 153.815 42.081 C 149.191 48.046, 145.114 51.889, 138.241 56.761 C 130.333 62.367, 129.139 63.568, 130.309 64.738 C 131.480 65.908, 133.057 65.878, 140.783 64.538 L 149.878 62.960 156.210 65.494 C 161.043 67.429, 165.316 68.207, 174.271 68.781 C 180.722 69.194, 186.002 69.300, 186.005 69.016 C 186.008 68.732, 183.196 62.011, 179.755 54.079 L 173.500 39.659 167.272 36.829 C 163.847 35.273, 160.827 34, 160.561 34 C 160.296 34, 157.260 37.636, 153.815 42.081 M 27.043 38.919 L 21.585 41.744 15.316 56.979 L 9.047 72.214 12.274 71.654 C 14.048 71.345, 19.325 70.779, 24 70.396 C 29.763 69.923, 34.593 68.816, 39 66.958 C 45.464 64.233, 45.547 64.226, 53.983 65.591 C 61.493 66.806, 62.639 66.787, 63.983 65.425 C 65.329 64.060, 65.331 63.789, 64 63.015 C 55.583 58.121, 46.107 50.212, 40.800 43.652 C 37.395 39.443, 34.135 36.021, 33.555 36.047 C 32.975 36.073, 30.044 37.365, 27.043 38.919 M 106.376 66.586 L 97.251 70.999 88.045 66.913 C 82.982 64.666, 78.616 63.051, 78.343 63.324 C 78.069 63.597, 80.513 65.632, 83.774 67.846 C 89.506 71.739, 89.803 72.162, 92.796 80.686 L 95.890 89.500 91.307 94.174 L 86.724 98.848 87.848 103.312 C 88.946 107.672, 88.857 107.983, 83.986 116.736 C 79.051 125.603, 79.014 125.737, 80.391 129.598 C 81.951 133.974, 81.769 133.962, 91.207 130.312 L 97.913 127.718 105.643 130.866 C 114.026 134.280, 114.366 134.194, 115.459 128.369 C 115.966 125.666, 115.203 123.583, 111.005 116.199 C 106.559 108.379, 106.065 106.958, 106.970 104.580 C 108.718 99.981, 108.160 98.262, 103.472 93.805 L 98.944 89.500 101.989 80.500 C 104.901 71.892, 105.272 71.334, 110.517 67.690 C 113.533 65.595, 116 63.457, 116 62.940 C 116 62.423, 115.888 62.039, 115.750 62.086 C 115.612 62.133, 111.394 64.158, 106.376 66.586 M 140.131 67.214 L 134.763 68.190 139.582 73.084 C 143.746 77.311, 144.640 77.808, 146.149 76.738 C 147.109 76.057, 149.669 74.236, 151.837 72.691 L 155.778 69.882 169.041 74.941 C 176.335 77.723, 182.466 80, 182.666 80 C 182.865 80, 181.871 78.251, 180.456 76.113 C 177.702 71.951, 175.265 71, 167.355 71 C 164.938 71, 160.192 69.875, 156.808 68.500 C 150.228 65.827, 148.495 65.693, 140.131 67.214 M 39 69.692 C 35.306 71.419, 31.104 72.428, 26.206 72.766 L 18.911 73.269 15.908 77.634 C 14.256 80.035, 13.173 82, 13.503 82 C 13.832 82, 18.242 80.246, 23.301 78.101 C 41.865 70.234, 39.118 70.612, 45.129 75.096 L 50.401 79.030 55.227 74.277 C 60.718 68.868, 60.700 68.844, 49.952 67.701 C 45.417 67.219, 43.575 67.554, 39 69.692 M 130.015 73.099 C 129.386 75.519, 128.484 78.974, 128.009 80.776 L 127.147 84.052 130.920 81.064 C 137.581 75.788, 137.757 75.296, 134.251 71.789 L 131.159 68.697 130.015 73.099 M 59.625 72.869 L 56.876 75.739 61.653 79.821 C 64.280 82.067, 66.582 83.752, 66.768 83.566 C 67.297 83.036, 63.655 70, 62.978 70 C 62.646 70, 61.137 71.291, 59.625 72.869 M 151.388 76.089 C 146.938 79.626, 146.563 81.089, 149.750 82.487 C 150.988 83.030, 152 83.787, 152 84.168 C 152 84.550, 155.557 87.369, 159.905 90.433 C 167.663 95.900, 168.025 96.349, 179.481 114.752 C 186.674 126.307, 190.947 132.349, 190.618 130.500 C 190.324 128.850, 189.130 118.500, 187.964 107.500 C 186.799 96.500, 185.486 86.590, 185.047 85.477 C 184.472 84.018, 180.384 81.996, 170.375 78.220 C 162.744 75.341, 156.224 72.989, 155.888 72.993 C 155.551 72.997, 153.526 74.390, 151.388 76.089 M 25.781 79.848 C 18.281 82.968, 11.908 85.758, 11.619 86.048 C 11.098 86.569, 6.870 133.204, 7.305 133.638 C 7.428 133.762, 12.248 125.577, 18.015 115.450 C 27.703 98.436, 28.956 96.700, 34.500 92.609 C 42.120 86.986, 48 81.948, 48 81.042 C 48 80.655, 46.069 78.952, 43.708 77.257 L 39.416 74.174 25.781 79.848 M 132.674 82.817 L 125.872 88.500 130.959 89.394 C 135.337 90.164, 136.829 89.955, 141.657 87.894 C 144.743 86.578, 147.250 85.050, 147.227 84.500 C 147.205 83.950, 145.451 82.068, 143.331 80.317 L 139.476 77.134 132.674 82.817 M 51.493 82.007 C 49.368 84.183, 47.826 86.138, 48.065 86.352 C 48.304 86.566, 50.575 87.646, 53.111 88.753 C 56.774 90.351, 58.915 90.635, 63.518 90.132 L 69.312 89.500 63.906 84.984 C 54.741 77.328, 55.811 77.585, 51.493 82.007 M 142.500 90.153 C 140.300 91.288, 136.925 93.679, 135 95.465 C 133.075 97.252, 129.339 100.166, 126.697 101.941 C 122.909 104.487, 122.132 105.454, 123.017 106.520 C 123.846 107.520, 123.846 108.420, 123.014 109.974 C 122.034 111.806, 122.553 112.871, 127.061 118.287 C 129.905 121.704, 132.520 124.613, 132.873 124.752 C 133.225 124.891, 136.346 120.280, 139.808 114.506 C 145.860 104.413, 147.974 98.150, 147.994 90.250 C 148.001 87.528, 147.599 87.521, 142.500 90.153 M 151 89.932 C 151 91.086, 153.677 97.311, 156.949 103.765 C 162.805 115.317, 163.022 115.590, 170.949 121.265 L 179 127.029 179 123.028 C 179 119.849, 177.642 116.818, 172.386 108.264 C 166.650 98.929, 164.903 96.902, 159.230 93 C 151.103 87.409, 151 87.371, 151 89.932 M 36.865 94.086 C 31.007 98.455, 29.507 100.325, 24.057 110.058 C 19.140 118.838, 17.947 121.806, 18.192 124.646 L 18.500 128.212 26.037 122.186 C 33.309 116.373, 33.768 115.744, 39.122 104.286 C 46.208 89.120, 45.828 87.402, 36.865 94.086 M 47 90.193 C 47 90.822, 47.514 94.288, 48.142 97.895 C 49.028 102.982, 50.733 106.895, 55.740 115.329 C 59.290 121.311, 62.517 125.821, 62.911 125.352 C 65.904 121.790, 71.792 114.273, 72.376 113.271 C 72.770 112.595, 72.620 111.159, 72.044 110.081 C 71.347 108.780, 71.332 107.913, 71.997 107.502 C 73.853 106.355, 73.023 105.204, 68.375 102.480 C 65.832 100.989, 62.119 98.311, 60.125 96.529 C 54.765 91.738, 47 87.989, 47 90.193 M 63.500 92.882 L 60.500 93.526 62.973 95.263 C 64.332 96.218, 66.807 97.005, 68.473 97.011 C 75.724 97.037, 79.172 98.235, 81.101 101.398 C 82.141 103.104, 82.994 104.780, 82.996 105.122 C 82.998 105.464, 81.226 106.028, 79.057 106.375 C 74.753 107.063, 73.683 108.010, 74.577 110.340 C 75.077 111.643, 79.852 114, 81.992 114 C 82.373 114, 83.477 112.530, 84.444 110.734 C 85.933 107.969, 86.029 106.823, 85.072 103.266 C 84.071 99.550, 83.210 98.656, 77.624 95.532 C 71.358 92.028, 69.282 91.639, 63.500 92.882 M 117.042 95.443 C 110.005 99.823, 108.001 104.443, 110.615 110.250 C 112.507 114.451, 112.930 114.605, 116.928 112.537 C 121.990 109.920, 121.413 106, 115.967 106 C 112.321 106, 111.847 105.196, 113.550 101.903 C 115.473 98.185, 117.188 97.376, 125 96.503 C 135.299 95.353, 137.742 91.985, 128.250 92.023 C 123.472 92.041, 121.578 92.619, 117.042 95.443 M 149.449 99.354 C 149.021 101.054, 149.463 105.698, 150.543 110.844 L 152.356 119.480 165.059 132.990 C 172.046 140.421, 178.941 147.591, 180.381 148.924 L 183 151.349 182.901 146.924 C 182.847 144.491, 182.509 140.158, 182.151 137.295 L 181.500 132.090 171 124.295 C 160.619 116.588, 160.442 116.387, 155.334 106.500 C 150.492 97.128, 150.123 96.679, 149.449 99.354 M 40.238 108 C 35.196 118.486, 35.175 118.511, 25.094 126.298 L 15 134.096 15 143.262 C 15 151.007, 15.209 152.202, 16.348 150.964 C 17.089 150.159, 23.532 142.954, 30.665 134.953 L 43.634 120.405 45.235 112.421 C 46.254 107.345, 46.555 103.174, 46.063 100.969 C 45.289 97.503, 45.284 97.509, 40.238 108 M 120.335 99.717 C 118.594 99.935, 116.935 100.726, 116.648 101.474 C 115.681 103.994, 119.099 104.005, 122.796 101.493 C 124.813 100.122, 125.797 99.072, 124.982 99.160 C 124.167 99.248, 122.076 99.499, 120.335 99.717 M 72.500 102 C 77.067 105.025, 81.027 104.427, 77.800 101.200 C 77.140 100.540, 75.002 100.003, 73.050 100.007 L 69.500 100.013 72.500 102 M 140.674 118.017 C 135.817 126.264, 134.684 129.095, 133.858 135.055 C 133.314 138.985, 133.010 142.335, 133.184 142.499 C 133.358 142.662, 137.206 137.674, 141.736 131.415 L 149.973 120.034 148.819 114.767 C 148.184 111.870, 147.403 109.191, 147.082 108.813 C 146.762 108.435, 143.878 112.576, 140.674 118.017 M 47.544 113.553 C 47.156 116.139, 46.635 118.787, 46.386 119.437 C 45.977 120.501, 61.851 143.532, 62.493 142.805 C 62.641 142.637, 62.350 139.485, 61.846 135.799 C 61.109 130.409, 59.861 127.290, 55.463 119.848 C 52.456 114.759, 49.603 110.203, 49.123 109.723 C 48.625 109.225, 47.946 110.872, 47.544 113.553 M 69.489 121.100 L 63.789 128.155 64.492 133.780 L 65.195 139.406 69.525 134.453 C 71.907 131.729, 75.433 126.683, 77.360 123.241 L 80.864 116.981 78.026 115.513 L 75.188 114.046 69.489 121.100 M 117.250 115.220 C 114.392 116.599, 114.424 117.146, 117.699 122.822 C 120.052 126.901, 130.222 140.184, 130.608 139.683 C 130.686 139.582, 131.054 136.985, 131.427 133.910 L 132.104 128.320 126.302 121.217 C 123.111 117.310, 120.275 114.118, 120 114.124 C 119.725 114.130, 118.487 114.624, 117.250 115.220 M 150.607 123.583 C 150.240 124.539, 154.097 133.947, 160.143 146.844 C 165.727 158.755, 171.606 171.361, 173.207 174.858 C 174.808 178.355, 176.319 181.014, 176.566 180.768 C 176.812 180.521, 175.849 172.284, 174.425 162.463 C 171.533 142.522, 172.488 144.568, 159.779 131.067 C 153.285 124.169, 151.074 122.365, 150.607 123.583 M 35.500 133.221 C 30.550 138.780, 26.181 143.856, 25.792 144.501 C 24.929 145.929, 20.646 178.980, 21.246 179.580 C 21.481 179.814, 27.157 167.550, 33.860 152.327 C 40.563 137.103, 45.700 124.303, 45.274 123.881 C 44.848 123.459, 40.450 127.663, 35.500 133.221 M 35.856 154.181 L 24.336 180.362 26.366 187.321 C 28.829 195.766, 28.847 195.732, 32.989 175 C 34.692 166.475, 36.296 158.790, 36.555 157.923 C 36.813 157.056, 41.294 152.869, 46.512 148.619 C 51.731 144.370, 56 140.448, 56 139.904 C 56 138.994, 48.294 128, 47.657 128 C 47.503 128, 42.192 139.781, 35.856 154.181 M 143.054 133.750 L 138.950 139.500 141.775 142 C 143.328 143.375, 147.961 147.234, 152.071 150.575 L 159.544 156.651 163.395 174.216 C 165.514 183.877, 167.566 192.298, 167.957 192.930 C 168.348 193.563, 169.609 190.943, 170.767 187.092 L 172.867 180.105 160.684 154.060 C 153.983 139.734, 148.198 128.011, 147.829 128.007 C 147.460 128.003, 145.311 130.588, 143.054 133.750 M 71.197 136.244 C 65.498 142.819, 64.957 143.828, 65.429 147 C 66.519 154.322, 76.829 158.392, 89.789 156.615 C 95.503 155.832, 96.187 155.184, 95.408 151.288 C 94.883 148.665, 94.123 148.014, 90.344 146.956 C 86.888 145.989, 85.230 144.741, 82.901 141.356 C 81.252 138.960, 79.490 137, 78.983 137 C 78.477 137, 78.271 136.438, 78.527 135.750 C 78.782 135.063, 78.652 133.260, 78.238 131.744 C 77.490 129, 77.460 129.019, 71.197 136.244 M 117.412 131.495 C 117.067 132.870, 117.044 134.672, 117.361 135.498 C 117.679 136.327, 117.392 137.001, 116.719 137.002 C 116.048 137.003, 114.257 138.971, 112.738 141.375 C 110.522 144.884, 109.088 145.995, 105.474 147.007 C 100.902 148.287, 99.020 151.004, 100.334 154.428 C 101.081 156.373, 108.761 157.394, 117.282 156.680 C 126.124 155.938, 130 152.914, 130 146.759 C 130 143.474, 129.098 141.843, 124.020 135.943 C 118.328 129.330, 118.009 129.115, 117.412 131.495 M 90.500 133.379 L 85.500 135.636 91 136.881 C 97.880 138.438, 98.319 138.434, 104.901 136.764 L 110.302 135.393 104.562 133.197 C 97.578 130.524, 96.805 130.534, 90.500 133.379 M 84.910 139.832 C 86.361 142.543, 88.027 143.653, 92.750 145.055 C 95.412 145.845, 97.011 146.911, 97.030 147.908 C 97.058 149.350, 97.150 149.348, 98.003 147.888 C 98.521 147.001, 100.996 145.701, 103.503 144.999 C 106.457 144.172, 108.778 142.716, 110.099 140.861 C 111.219 139.288, 111.903 138, 111.617 138 C 108.154 138, 100.216 140.677, 99.144 142.207 C 97.805 144.116, 97.769 144.115, 96.395 142.154 C 95.574 140.982, 92.932 139.722, 89.952 139.083 C 83.537 137.707, 83.756 137.675, 84.910 139.832 M 48.792 150.012 C 39.935 157.378, 39.081 158.402, 38.166 162.761 C 37.618 165.367, 36.157 172.450, 34.917 178.500 L 32.664 189.500 41.082 202.980 L 49.500 216.459 49.765 187.100 L 50.031 157.741 53.792 153.120 C 60.142 145.320, 60.211 145.199, 59.290 143.554 C 58.581 142.287, 56.659 143.469, 48.792 150.012 M 136.152 143.317 C 135.289 144.356, 136.272 146.153, 140.519 151.302 L 146 157.947 146 188.205 L 146 218.464 148.322 214.982 C 149.599 213.067, 153.663 206.530, 157.352 200.456 L 164.061 189.412 160.602 173.611 C 158.701 164.921, 156.999 157.703, 156.822 157.572 C 156.645 157.440, 152.675 154.246, 148 150.475 C 143.325 146.704, 138.997 143.248, 138.383 142.797 C 137.742 142.326, 136.791 142.547, 136.152 143.317 M 133 149.055 C 133 150.324, 131.325 152.742, 128.976 154.864 L 124.952 158.500 134.044 181.484 C 139.044 194.126, 143.217 204.552, 143.318 204.653 C 143.418 204.754, 143.363 194.422, 143.196 181.691 L 142.892 158.545 138.801 153.242 C 133.870 146.850, 133 146.223, 133 149.055 M 57.085 153.131 L 53 158.261 53.079 180.881 C 53.122 193.321, 53.368 203.050, 53.625 202.500 C 53.882 201.950, 57.831 191.825, 62.401 180 L 70.710 158.500 66.855 154.462 C 64.735 152.241, 63 149.879, 63 149.212 C 63 146.826, 61.106 148.081, 57.085 153.131 M 94 159 C 94 159.550, 95.800 160, 98 160 C 100.200 160, 102 159.550, 102 159 C 102 158.450, 100.200 158, 98 158 C 95.800 158, 94 158.450, 94 159 M 74.385 160.562 C 74.723 161.443, 75 162.511, 75 162.935 C 75 163.359, 78.145 165.798, 81.988 168.353 L 88.976 173 98.065 173 L 107.155 173 114.001 168.288 C 118.281 165.343, 121.009 162.731, 121.279 161.321 C 121.704 159.096, 121.596 159.072, 113.110 159.508 C 106.949 159.825, 104.193 160.383, 103.395 161.475 C 101.861 163.572, 93.413 163.560, 92.237 161.460 C 91.599 160.319, 89.093 159.795, 82.573 159.440 C 74.794 159.016, 73.842 159.146, 74.385 160.562 M 62.772 186.215 L 54.044 209.104 61.346 220.032 L 68.648 230.959 70.276 225.730 C 71.172 222.853, 73.573 211.809, 75.612 201.188 L 79.321 181.875 83.700 178.863 L 88.079 175.850 85.789 174.099 C 84.530 173.136, 81.250 170.858, 78.500 169.035 C 75.750 167.213, 73.050 165.183, 72.500 164.524 C 71.795 163.679, 68.926 170.076, 62.772 186.215 M 122.695 164.354 C 122.381 165.172, 119.301 167.790, 115.850 170.171 C 112.400 172.552, 109.110 174.825, 108.538 175.222 C 107.890 175.672, 108.252 176.474, 109.500 177.356 C 115.996 181.944, 115.863 181.632, 120.488 203 C 122.929 214.275, 125.544 225.282, 126.300 227.460 L 127.674 231.420 134.837 220.743 C 138.777 214.871, 142 209.791, 142 209.453 C 142 208.359, 124.766 164.526, 124.004 163.683 C 123.598 163.233, 123.009 163.535, 122.695 164.354 M 94.556 178.250 C 94.936 179.488, 95.811 181.850, 96.501 183.500 L 97.754 186.500 98.869 183.706 C 99.482 182.169, 100.261 179.807, 100.600 178.456 C 101.171 176.182, 100.945 176, 97.541 176 C 94.191 176, 93.926 176.199, 94.556 178.250 M 86.256 180.095 C 83.922 181.748, 81.778 184.091, 81.492 185.300 C 81.206 186.510, 79.424 195.232, 77.534 204.682 L 74.096 221.863 76.536 230.682 C 77.877 235.532, 78.981 240.963, 78.988 242.750 C 79.005 247.230, 80.279 246.818, 82.076 241.750 C 83.191 238.607, 83.442 235.095, 83.042 228.264 L 82.500 219.029 89.814 209.514 C 93.837 204.281, 97.476 200, 97.900 200 C 98.324 200, 102.008 204.297, 106.086 209.548 L 113.500 219.097 113.159 228.798 C 112.884 236.611, 113.194 239.454, 114.753 243.403 L 116.689 248.306 117.357 242.617 C 117.725 239.488, 118.920 233.669, 120.013 229.686 L 122 222.444 118 203.999 C 115.800 193.854, 114 185.225, 114 184.823 C 114 183.516, 104.670 176.928, 103.948 177.726 C 103.563 178.152, 102.236 181.650, 101 185.500 C 99.764 189.350, 98.451 192.835, 98.083 193.244 C 97.714 193.653, 96.088 190.165, 94.469 185.494 C 92.849 180.822, 91.294 177.020, 91.012 177.045 C 90.730 177.069, 88.590 178.442, 86.256 180.095 M 93.496 209.005 L 89.822 214.010 94.010 219.012 L 98.197 224.013 102.195 218.992 L 106.193 213.971 102.391 208.986 C 100.300 206.244, 98.270 204, 97.880 204 C 97.490 204, 95.517 206.252, 93.496 209.005" stroke="none" fill="#f8f4f4" fill-rule="evenodd"/></svg>