<svg width="41" height="31" viewBox="0 0 41 31" fill="none" xmlns="http://www.w3.org/2000/svg">
<path d="M40.28 18.3051V16.4851C40.28 16.3751 40.28 16.2551 40.25 16.1651C40.25 16.1651 31.19 1.41508 30.97 0.925082C30.84 0.615082 30.66 0.395082 30.43 0.265082C29.9 -0.0449179 29.35 -0.0849179 28.8 0.155082C28.14 0.425082 27.48 0.725082 26.83 1.02508L26.37 1.23508C25.79 1.50508 25.43 2.23508 25.57 2.83508C25.69 3.32508 25.86 3.81508 26.02 4.26508C26.08 4.43508 26.2 4.60508 26.33 4.78508C26.69 5.24508 27.22 5.41508 27.72 5.21508C27.83 5.17508 27.95 5.18508 28.04 5.24508C28.26 5.37508 32.31 15.9651 32.31 15.9651H7.94C7.94 15.9651 11.8 6.21508 11.85 5.67508C11.86 5.57508 11.91 5.42508 12.03 5.33508C12.12 5.27508 12.23 5.25508 12.33 5.28508C12.64 5.36508 12.95 5.35508 13.29 5.23508C13.72 5.08508 13.99 4.81508 14.11 4.40508C14.2 4.16508 14.27 3.91508 14.34 3.66508C14.39 3.49508 14.44 3.32508 14.5 3.14508C14.76 2.30508 14.25 1.50508 13.63 1.25508C13.28 1.12508 12.94 0.965082 12.61 0.805082C12.44 0.735082 12.27 0.655082 12.1 0.585082L11.99 0.535082C11.65 0.385082 11.3 0.235082 10.96 0.115082C10.85 0.0750821 10.74 0.0650821 10.62 0.0650821C10.1 0.0650821 9.47 0.385082 9.25 0.945082C8.83 2.02508 0.06 16.1551 0.06 16.1551C0.02 16.2451 0 16.3551 0 16.4451V30.1651C0 30.5751 0.2 30.7651 0.62 30.7851H0.96H14.08C14.2 30.7851 14.31 30.7451 14.4 30.6551C14.47 30.6051 14.52 30.5551 14.57 30.5051C16.29 28.7851 18 27.0651 19.72 25.3551L20.16 24.8851L20.34 25.0451C20.39 25.0851 20.42 25.1151 20.44 25.1351L22.12 26.8151C23.24 27.9351 24.37 29.0551 25.49 30.1851C25.64 30.3351 25.8 30.4951 25.96 30.6551C26.06 30.7351 26.17 30.7851 26.31 30.7851C26.43 30.7751 26.57 30.7751 26.7 30.7751H39.73C40.04 30.7851 40.24 30.5951 40.28 30.2951C40.29 30.2451 40.3 30.1951 40.32 30.1451V18.1551L40.28 18.3051ZM15.16 25.8051C15.16 26.4851 14.6 27.0351 13.92 27.0351H6.08C5.4 27.0351 4.85 26.4851 4.85 25.8051V20.9551C4.85 20.2751 5.4 19.7251 6.08 19.7251H13.92C14.6 19.7251 15.16 20.2751 15.16 20.9551V25.8051ZM35.47 25.8051C35.47 26.4851 34.92 27.0351 34.24 27.0351H26.4C25.72 27.0351 25.16 26.4851 25.16 25.8051V20.9551C25.16 20.2751 25.72 19.7251 26.4 19.7251H34.24C34.92 19.7251 35.47 20.2751 35.47 20.9551V25.8051Z" fill="#ffffff"/>
</svg>
