<svg width="40" height="39" viewBox="0 0 40 39" fill="none" xmlns="http://www.w3.org/2000/svg">
<path d="M37.9054 12.8542C36.5735 9.16467 34.3019 6.15836 31.1819 3.78065C28.6822 1.89487 25.8724 0.701461 22.798 0.182189C22.424 0.118419 22.0408 0.0910892 21.6668 0.0455391V0.0273191C21.8401 -1.09859e-05 17.0689 0.0182091 17.224 0.0546491C12.6443 0.51015 8.76715 2.44147 5.57416 5.6482C2.3903 8.83671 0.428901 12.6902 0.0183747 17.2726C-0.0181165 17.0995 0.00925191 21.782 0.0548659 21.5179C0.118726 21.8914 0.0639888 22.274 0.118726 22.6293C0.32855 24.1051 0.739076 25.5354 1.30469 26.911C2.1075 28.8514 3.21136 30.6279 4.60715 32.213C9.08644 37.26 14.7243 39.4555 21.4296 38.918C23.464 38.754 25.4163 38.2439 27.2773 37.3966C31.4556 35.52 34.6485 32.5683 36.8107 28.5326C37.8507 26.6012 38.4893 24.5333 38.845 22.356C39.0275 21.2172 38.9728 20.0694 39.0001 18.9306C39.0275 16.8262 38.6078 14.8129 37.9054 12.8451V12.8542ZM19.4591 37.2235C9.75241 37.2873 1.39592 29.2614 1.66048 18.9579C1.88855 9.70216 9.5882 1.49403 19.8331 1.69445C29.7222 1.89487 37.4493 10.1212 37.2486 19.8234C37.0479 29.2978 29.33 37.2326 19.4591 37.2235Z" fill="#580818"/>
<path d="M29.2204 15.0224V9.10089C29.2204 8.89136 29.1839 8.79115 28.9285 8.7547C27.9341 8.59983 26.9397 8.45408 25.9453 8.25365C23.838 7.80726 21.9222 6.90537 20.0064 5.95793C19.605 5.7484 19.2857 5.7484 18.8752 5.95793C17.2057 6.8416 15.4724 7.60684 13.6387 8.06234C12.4162 8.35386 11.1846 8.53607 9.95306 8.7456C9.72499 8.78204 9.66113 8.86403 9.66113 9.09178C9.67026 12.672 9.66113 16.2614 9.67026 19.8507C9.67938 20.6524 9.72499 21.4723 9.82534 22.274C9.96219 23.4127 10.2267 24.5333 10.7194 25.5809C11.5313 27.33 12.7629 28.7512 14.2408 29.9719C15.6731 31.1562 17.2696 32.1037 18.8934 32.9965C19.2766 33.1969 19.678 33.1696 20.0611 32.96C21.6941 32.0946 23.2267 31.0834 24.659 29.9355C25.8815 28.9698 26.9306 27.8402 27.6969 26.4737C28.746 24.6152 29.1748 22.5837 29.1931 20.4611C29.2204 18.6482 29.2022 16.8444 29.2022 15.0224H29.2204ZM18.5103 30.6916C17.9173 30.2999 17.3425 29.9355 16.7769 29.5529C15.5727 28.7603 14.4506 27.8584 13.5474 26.7197C12.4345 25.3167 11.7867 23.7134 11.6225 21.9278C11.586 21.4541 11.5404 20.9804 11.4948 20.4702H18.5103V30.6916ZM18.5194 18.6573H17.8443C15.8099 18.6573 13.7846 18.6482 11.7594 18.6573C11.5587 18.6573 11.5222 18.6026 11.5222 18.4204C11.5222 15.8059 11.5131 13.2004 11.5039 10.5858C11.5039 10.4036 11.5404 10.3125 11.7229 10.2852C14.0674 9.93901 16.3117 9.24665 18.4464 8.2081H18.5194V18.6664V18.6573ZM23.4913 28.5599C22.5243 29.3342 21.4934 29.9902 20.4534 30.637C20.4352 30.6461 20.4169 30.6461 20.3622 30.6643V20.8619C20.3622 20.4611 20.3713 20.452 20.7818 20.452C22.9074 20.4611 25.0331 20.4702 27.1587 20.4702C27.3138 20.4702 27.3594 20.5066 27.3594 20.6706C27.3503 23.932 26.0274 26.5284 23.4913 28.5508V28.5599ZM27.3685 18.4295C27.3685 18.5024 27.3594 18.5662 27.3594 18.6482H20.3713V8.15344C20.645 8.27187 20.8913 8.38119 21.1467 8.50873C23.0717 9.39241 25.0696 9.97545 27.1587 10.3216C27.332 10.349 27.3776 10.4036 27.3776 10.5858C27.3776 13.2004 27.3685 15.8241 27.3685 18.4387V18.4295Z" fill="#580818"/>
<path d="M18.5103 20.4702V30.6917C17.9173 30.2999 17.3426 29.9355 16.777 29.5529C15.5728 28.7603 14.4507 27.8584 13.5475 26.7197C12.4345 25.3167 11.7868 23.7134 11.6226 21.9278C11.5861 21.4541 11.5405 20.9804 11.4949 20.4702H18.5103Z" fill="#580818"/>
<path d="M27.3777 10.5766C27.3777 13.1912 27.3685 15.8148 27.3685 18.4294C27.3685 18.5023 27.3594 18.5661 27.3594 18.6481H20.3713V8.15332C20.645 8.27175 20.8913 8.38107 21.1468 8.50861C23.0717 9.39228 25.0696 9.97532 27.1587 10.3215C27.332 10.3488 27.3777 10.4035 27.3777 10.5857V10.5766Z" fill="#580818"/>
</svg>
