<svg width="55" height="31" viewBox="0 0 55 31" fill="none" xmlns="http://www.w3.org/2000/svg">
<path d="M43.2261 4.35803C43.2261 4.83208 43.2261 5.29429 43.2261 5.76834C43.2261 5.8039 43.226 5.8513 43.2142 5.89871C39.2203 5.87501 35.2382 5.8513 31.2324 5.83945C31.2561 12.0259 31.2798 18.2005 31.3154 24.3751H24.4653C24.5008 24.6121 24.5364 24.8254 24.5719 25.0387C24.809 26.3424 25.0341 27.646 25.2712 28.9379C25.2949 29.0682 25.3423 29.1156 25.4845 29.1156C27.357 29.1156 29.2295 29.1156 31.1021 29.1156C31.1613 29.1156 31.2324 29.1156 31.3035 29.1038V31H12.5901V29.8978C12.5901 29.6726 12.5901 29.4475 12.5901 29.2223C12.5901 29.1867 12.6494 29.1275 12.685 29.1275C12.7679 29.1156 12.8627 29.1275 12.9575 29.1275C14.8301 29.1275 16.6907 29.1275 18.5633 29.1275C18.6936 29.1275 18.7292 29.0801 18.7529 28.9616C18.9899 27.6105 19.2269 26.2594 19.464 24.9202C19.4877 24.7543 19.5232 24.5765 19.5469 24.3869H19.3454C13.2657 24.3869 7.1859 24.3869 1.11797 24.3869C0.786133 24.3632 0.786133 24.3632 0.786133 24.0432V0.838156H1.17723C5.74002 0.838156 10.3028 0.838156 14.8656 0.838156C23.9438 0.838156 33.0338 0.838156 42.1239 0.838156C42.4439 0.838156 42.752 0.826305 43.072 0.814453C43.1905 0.814453 43.2261 0.850007 43.2261 0.968521C43.2261 2.09441 43.2261 3.22029 43.2261 4.35803Z" fill="#ffffff"/>
<path d="M49.4126 11.3386C49.4126 11.4927 49.3533 11.5401 49.2111 11.5401C48.5355 11.5401 47.8482 11.5401 47.1726 11.5638C45.786 11.5756 44.4113 11.5875 43.0246 11.5993C42.8943 11.5993 42.8587 11.6349 42.8587 11.7653C42.8587 18.1058 42.835 24.4581 42.8232 30.7986C42.8232 30.9053 42.8232 31.0001 42.6691 31.0001C41.3299 31.0001 39.9788 30.9882 38.6396 30.9882C37.0634 30.9882 35.4753 30.9882 33.8991 30.9882C33.7924 30.9882 33.7805 30.9527 33.7687 30.8579C33.7687 30.6564 33.7568 30.4431 33.7568 30.2416V8.67204C33.7568 8.45871 33.8635 8.35205 34.0768 8.35205H49.4126V8.58908C49.4126 9.50164 49.4126 10.426 49.4126 11.3386Z" fill="#ffffff"/>
<path d="M54.722 13.9937V30.9767H53.4895C50.8585 30.9767 48.2275 30.9767 45.5965 30.9767C45.3476 30.9767 45.3476 30.9767 45.3476 30.7278C45.3476 27.5043 45.3476 24.2688 45.3476 21.0452C45.3476 18.912 45.3476 16.7787 45.3476 14.6573C45.3476 14.5033 45.3476 14.3373 45.3357 14.1833C45.3239 14.0411 45.3713 14.0055 45.5135 14.0055C46.1298 14.0055 46.7579 14.0055 47.386 14.0055C49.7089 14.0055 52.0318 14.0055 54.3428 14.0055H54.7339L54.722 13.9937Z" fill="#ffffff"/>
</svg>
