<svg xmlns="http://www.w3.org/2000/svg" width="37" height="38" viewBox="0 0 37 38" fill="none">
<path d="M18.5 0C8.288 0 0 8.512 0 19C0 29.488 8.288 38 18.5 38C28.712 38 37 29.488 37 19C37 8.512 28.712 0 18.5 0ZM20.128 29.944V32.3H16.8905V29.849C15.5215 29.507 12.469 28.386 11.3035 24.225L14.356 22.952C14.467 23.37 15.429 26.923 18.796 26.923C20.5165 26.923 22.459 26.011 22.459 23.864C22.459 22.04 21.164 21.09 18.241 20.007C16.206 19.266 12.0435 18.05 12.0435 13.718C12.0435 13.528 12.062 9.158 16.8905 8.094V5.7H20.128V8.056C23.532 8.664 24.7715 11.457 25.049 12.293L22.126 13.566C21.9225 12.901 21.0345 11.02 18.611 11.02C17.316 11.02 15.2625 11.723 15.2625 13.661C15.2625 15.466 16.8535 16.15 20.1465 17.271C24.5865 18.848 25.715 21.166 25.715 23.826C25.715 28.823 21.09 29.773 20.128 29.944Z" fill="white"/>
</svg>