<svg width="22" height="42" viewBox="0 0 22 42" fill="none" xmlns="http://www.w3.org/2000/svg">
<path d="M19.849 12.8315H2.15102C0.969022 12.8315 0 13.7899 0 14.9826V39.0271C0 40.2197 0.969022 41.1781 2.15102 41.1781H19.849C21.031 41.1781 22 40.2197 22 39.0271V14.9826C22 13.7899 21.031 12.8315 19.849 12.8315ZM18.635 34.1926H3.36496V15.6747H18.635V34.1926Z" fill="#ffffff"/>
<path d="M7.27309 11.138C7.00687 11.138 6.73001 11.0316 6.51704 10.8292C6.10174 10.4139 6.10174 9.74307 6.51704 9.32778C7.54995 8.28422 9.13659 7.68789 10.8723 7.67725H11.1172C12.853 7.67725 14.4396 8.29486 15.4725 9.32778C15.8878 9.74307 15.8878 10.4139 15.4725 10.8292C15.0572 11.2445 14.3757 11.2445 13.9711 10.8292C13.3428 10.1903 12.2779 9.80697 11.1172 9.80697H10.883C9.73291 9.80697 8.66805 10.201 8.03979 10.8292C7.82682 11.0422 7.5606 11.138 7.28374 11.138H7.27309Z" fill="#ffffff"/>
<path d="M16.7397 8.02904C16.4628 8.02904 16.1966 7.92256 15.9836 7.72023C14.9081 6.63408 13.1085 5.98451 11.1811 5.96322H10.8191C8.89166 5.97386 7.09205 6.63408 6.01654 7.72023C5.60124 8.13553 4.93038 8.13553 4.51508 7.72023C4.09979 7.30494 4.09979 6.63408 4.51508 6.21878C6.00589 4.71733 8.30599 3.85479 10.8191 3.8335H11.2024C13.7261 3.84414 16.0262 4.71733 17.517 6.21878C17.9323 6.63408 17.9323 7.30494 17.517 7.72023C17.304 7.92256 17.0378 8.02904 16.761 8.02904H16.7397Z" fill="#ffffff"/>
<path d="M18.6243 4.87706C18.3474 4.87706 18.0812 4.77057 17.8682 4.56825C16.3668 3.0668 13.8963 2.15102 11.2448 2.14037H10.755C8.1141 2.16167 5.63298 3.0668 4.13153 4.56825C3.71623 4.98354 3.04537 4.98354 2.63007 4.56825C2.21478 4.15295 2.21478 3.48209 2.63007 3.0668C4.53617 1.12875 7.49648 0.0212972 10.7443 0H11.2448C14.5033 0.0212972 17.4636 1.12875 19.3803 3.05615C19.7956 3.47144 19.7956 4.1423 19.3803 4.5576C19.178 4.75992 18.9011 4.86641 18.6243 4.86641V4.87706Z" fill="#ffffff"/>
</svg>
