<svg width="27" height="32" viewBox="0 0 27 32" fill="none" xmlns="http://www.w3.org/2000/svg">
<path d="M21.3701 8.21C21.34 12.74 17.65 16.4 13.09 16.35C8.73005 16.29 5.02005 12.75 5.03005 8.13C5.03005 3.64 8.74005 0 13.21 0C17.83 0 21.3901 3.82 21.3701 8.21Z" fill="#580818"/>
<path d="M26.41 31.0898C26.41 31.1898 26.38 31.2198 26.28 31.2198C25.8 31.2198 25.33 31.2198 24.86 31.2198H0.13C0.13 31.2198 0.06 31.2198 0 31.2198V31.0198C0 28.8998 0 26.7998 0 24.6998C0 23.3798 0.34 22.1598 1.06 21.0398C2.12 19.4198 3.59 18.3998 5.48 17.9898C5.93 17.8898 6.39 17.8398 6.86 17.8398C7.92 17.8398 8.99 17.8398 10.06 17.8398C10.16 17.8398 10.19 17.8798 10.22 17.9598C11.16 21.1198 12.1 24.2798 13.05 27.4498C13.1 27.6098 13.15 27.7698 13.22 27.9298C13.28 27.7198 13.34 27.5098 13.4 27.3098L14.45 23.7798C14.98 21.9998 15.52 20.2198 16.05 18.4298C16.09 18.2898 16.14 18.1398 16.18 17.9998C16.2133 17.8932 16.2867 17.8398 16.4 17.8398C17.42 17.8398 18.43 17.8398 19.45 17.8398C19.61 17.8398 19.78 17.8398 19.95 17.8498C20.62 17.8798 21.26 18.0398 21.89 18.2498C22.67 18.5198 23.37 18.9398 24 19.4798C25.15 20.4698 25.91 21.6998 26.25 23.1998C26.41 23.9098 26.43 24.6398 26.42 25.3698C26.42 27.2098 26.42 29.0498 26.42 30.8898C26.42 30.9598 26.42 31.0298 26.42 31.0898H26.41Z" fill="#580818"/>
</svg>
