<svg width="67" height="67" viewBox="0 0 67 67" fill="none" xmlns="http://www.w3.org/2000/svg">
<path d="M30 40H23.3333C23.3333 23.4333 36.7667 10 53.3333 10V16.6667C40.4333 16.6667 30 27.1 30 40ZM53.3333 30V23.3333C44.1333 23.3333 36.6667 30.8 36.6667 40H43.3333C43.3333 34.4667 47.8 30 53.3333 30ZM16.6667 6.66667C16.6667 2.96667 13.7 0 10 0C6.3 0 3.33333 2.96667 3.33333 6.66667C3.33333 10.3667 6.3 13.3333 10 13.3333C13.7 13.3333 16.6667 10.3667 16.6667 6.66667ZM31.5 8.33333H24.8333C24.0333 13.0667 19.9667 16.6667 15 16.6667H5C2.23333 16.6667 0 18.9 0 21.6667V30H20V22.4667C26.2 20.5 30.8333 15.0333 31.5 8.33333ZM56.6667 50C60.3667 50 63.3333 47.0333 63.3333 43.3333C63.3333 39.6333 60.3667 36.6667 56.6667 36.6667C52.9667 36.6667 50 39.6333 50 43.3333C50 47.0333 52.9667 50 56.6667 50ZM61.6667 53.3333H51.6667C46.7 53.3333 42.6333 49.7333 41.8333 45H35.1667C35.8333 51.7 40.4667 57.1667 46.6667 59.1333V66.6667H66.6667V58.3333C66.6667 55.5667 64.4333 53.3333 61.6667 53.3333Z" fill="#ffffff"/>
</svg>
