<svg width="28" height="32" viewBox="0 0 28 32" fill="none" xmlns="http://www.w3.org/2000/svg">
<path d="M27.4101 6.1602C27.4101 5.2902 27.0101 4.7602 26.0901 4.4202C22.4701 3.0302 18.8601 1.6502 15.2601 0.2102C14.5201 -0.0798002 13.8801 -0.0598002 13.1401 0.2302C9.52013 1.6502 5.92013 3.0502 2.29013 4.4202C1.39013 4.7602 1.00013 5.2702 1.01013 6.1302C1.05013 7.7902 1.03013 9.4502 1.03013 11.1102H1.01013C1.01013 12.3402 0.970132 13.5602 1.03013 14.7702C1.11013 16.0102 1.13013 17.2902 1.41013 18.5002C2.89013 24.6102 6.96013 28.8002 13.6801 30.9302C14.0001 31.0202 14.4001 31.0402 14.7201 30.9302C18.0401 30.0102 20.7901 28.2902 23.0301 26.0002C25.9101 23.0502 27.2701 19.5502 27.3501 15.7002C27.4501 12.5202 27.3701 9.3302 27.4101 6.1502V6.1602ZM22.2201 15.6302L18.2201 17.0602C18.1401 17.0802 18.1001 17.1702 18.1401 17.2402L19.9601 21.0802C20.0201 21.2002 19.9001 21.3202 19.7801 21.2602L15.9401 19.4402C15.8701 19.4002 15.7801 19.4402 15.7601 19.5102L14.3301 23.5202C14.2901 23.6402 14.1201 23.6402 14.0801 23.5202L12.6501 19.5102C12.6301 19.4402 12.5401 19.4002 12.4701 19.4402L8.63013 21.2602C8.51013 21.3202 8.39013 21.2002 8.45013 21.0802L10.2701 17.2402C10.3101 17.1702 10.2701 17.0802 10.1901 17.0602L6.19013 15.6302C6.07013 15.5902 6.07013 15.4202 6.19013 15.3802L10.1901 13.9502C10.2701 13.9302 10.3101 13.8402 10.2701 13.7702L8.45013 9.9302C8.39013 9.8102 8.51013 9.6902 8.63013 9.7502L12.4701 11.5702C12.5401 11.6102 12.6301 11.5702 12.6501 11.4902L14.0801 7.4902C14.1201 7.3702 14.2901 7.3702 14.3301 7.4902L15.7601 11.4902C15.7801 11.5702 15.8701 11.6102 15.9401 11.5702L19.7801 9.7502C19.9001 9.6902 20.0201 9.8102 19.9601 9.9302L18.1401 13.7702C18.1001 13.8402 18.1401 13.9302 18.2201 13.9502L22.2201 15.3802C22.3401 15.4202 22.3401 15.5902 22.2201 15.6302Z" fill="#580818"/>
</svg>
