<svg width="36" height="31" viewBox="0 0 36 31" fill="none" xmlns="http://www.w3.org/2000/svg">
<path d="M20.1402 0C19.9602 0.01 19.7802 0.03 19.6002 0.03C18.8202 0.03 18.0302 0.03 17.2502 0.03C17.1402 0.03 17.0202 0.01 16.9102 0C17.9902 0 19.0702 0 20.1502 0H20.1402Z" fill="#ffffff"/>
<path d="M11.8801 9.28002H25.0901V9.41002C25.0901 14.19 25.1301 18.97 25.0801 23.75C25.0501 26.44 23.8001 28.45 21.3901 29.7C20.7301 30.04 20.0101 30.23 19.2601 30.32C18.5701 30.41 17.8801 30.39 17.2001 30.25C15.9601 29.99 14.8501 29.46 13.9401 28.57C12.9401 27.61 12.2901 26.45 12.0201 25.08C11.9401 24.66 11.8901 24.24 11.8901 23.81C11.8901 19.02 11.8901 14.23 11.8901 9.43002V9.27002L11.8801 9.28002Z" fill="#ffffff"/>
<path d="M18.48 6.62985C17.21 6.62985 15.94 6.62985 14.66 6.62985C14.51 6.62985 14.51 6.62985 14.51 6.47985C14.51 5.20985 14.51 3.93985 14.51 2.66985C14.52 1.64985 15 0.889848 15.87 0.379848C16.24 0.159848 16.65 0.0698479 17.09 0.0798479C18.02 0.0898479 18.95 0.0798479 19.88 0.0798479C21.01 0.0798479 22 0.829848 22.32 1.91985C22.41 2.21985 22.43 2.51985 22.43 2.81985C22.43 4.04985 22.43 5.28985 22.43 6.51985C22.43 6.62985 22.39 6.64985 22.29 6.64985C21.01 6.64985 19.74 6.64985 18.46 6.64985L18.48 6.62985Z" fill="#ffffff"/>
<path d="M30.0101 10.5898C29.3601 10.5898 28.7001 10.5898 28.0501 10.5898C27.4501 10.5898 26.9501 10.2298 26.7701 9.67978C26.4901 8.80978 27.1301 7.94978 28.0801 7.93978C29.0601 7.93978 30.0401 7.93978 31.0301 7.93978C31.1601 7.93978 31.2301 7.89978 31.2901 7.77978C31.8801 6.57978 32.4901 5.37978 33.0901 4.16978C33.2301 3.88978 33.3701 3.60978 33.5201 3.32978C33.9801 2.47978 35.1701 2.40978 35.7301 3.18978C36.0501 3.63978 36.0601 4.11978 35.8201 4.60978C35.5101 5.23978 35.2001 5.85978 34.8901 6.47978C34.4301 7.39978 33.9701 8.32978 33.5001 9.24978C33.4001 9.44978 33.2901 9.64978 33.1901 9.84978C32.9301 10.3298 32.5301 10.5698 31.9901 10.5698C31.3401 10.5698 30.6901 10.5698 30.0401 10.5698L30.0101 10.5898Z" fill="#ffffff"/>
<path d="M6.93998 10.5899C6.29998 10.5899 5.66998 10.5899 5.02998 10.5899C4.43998 10.5899 4.00998 10.3299 3.73998 9.79992C2.93998 8.19992 2.12998 6.59992 1.33998 4.98992C1.21998 4.73992 1.08998 4.48992 1.02998 4.21992C0.829979 3.30992 1.62998 2.51992 2.53998 2.67992C3.00998 2.76992 3.31998 3.05992 3.51998 3.46992C4.03998 4.50992 4.56998 5.54992 5.08998 6.58992C5.30998 7.01992 5.51998 7.44992 5.73998 7.87992C5.74998 7.90992 5.81998 7.92991 5.85998 7.92991C6.47998 7.92991 7.10998 7.92991 7.72998 7.92991C8.11998 7.92991 8.50998 7.92991 8.89998 7.92991C9.54998 7.92991 10.09 8.35992 10.22 8.96992C10.4 9.80992 9.78998 10.5699 8.90998 10.5799C8.57998 10.5799 8.24998 10.5799 7.91998 10.5799C7.58998 10.5799 7.26998 10.5799 6.93998 10.5799V10.5899Z" fill="#ffffff"/>
<path d="M30.0201 22.7801C30.6401 22.7801 31.2701 22.7801 31.8901 22.7801C32.5101 22.7701 32.9401 23.0301 33.2201 23.5801C33.7201 24.5801 34.2201 25.5801 34.7201 26.5801C35.1001 27.3401 35.4801 28.0901 35.8401 28.8601C36.2201 29.6701 35.7401 30.5601 34.8701 30.7201C34.3101 30.8201 33.7601 30.5401 33.4901 30.0201C32.9401 28.9401 32.4001 27.8501 31.8601 26.7701C31.6501 26.3501 31.4401 25.9301 31.2301 25.5001C31.1901 25.4301 31.1401 25.4301 31.0701 25.4301C30.0601 25.4301 29.0501 25.4301 28.0401 25.4301C27.8601 25.4301 27.6701 25.3901 27.5101 25.3301C26.9301 25.1001 26.6101 24.4901 26.7301 23.8601C26.8401 23.2701 27.3901 22.8101 28.0001 22.8101C28.6701 22.8101 29.3501 22.8101 30.0201 22.8101V22.7801Z" fill="#ffffff"/>
<path d="M6.95005 22.7798C7.62005 22.7798 8.29005 22.7798 8.96005 22.7798C9.58005 22.7798 10.1 23.2198 10.23 23.8398C10.35 24.4298 10.05 25.0498 9.48005 25.2898C9.30005 25.3698 9.09005 25.3998 8.90005 25.4098C7.91005 25.4198 6.91005 25.4098 5.92005 25.4098C5.81005 25.4098 5.75005 25.4398 5.69005 25.5498C5.13005 26.6898 4.56005 27.8198 4.00005 28.9498C3.85005 29.2598 3.69005 29.5598 3.54005 29.8698C3.34005 30.2698 3.05005 30.5598 2.59005 30.6698C1.75005 30.8598 0.91005 30.2098 1.00005 29.2298C1.02005 28.9698 1.15005 28.7498 1.26005 28.5298C2.00005 27.0398 2.74005 25.5498 3.49005 24.0698C3.59005 23.8798 3.68005 23.6798 3.78005 23.4998C4.03005 23.0498 4.41005 22.8098 4.93005 22.7998C5.60005 22.7998 6.27005 22.7998 6.94005 22.7998L6.95005 22.7798Z" fill="#ffffff"/>
<path d="M6.28016 18.5001C5.41016 18.5001 4.53016 18.5001 3.66016 18.5001C3.03016 18.5001 2.50016 18.0901 2.36016 17.5001C2.16016 16.6501 2.77016 15.8701 3.64016 15.8701C5.38016 15.8701 7.12016 15.8701 8.86016 15.8701C9.52016 15.8701 10.0202 16.2401 10.1902 16.8201C10.4302 17.6701 9.81016 18.5001 8.92016 18.5001C8.04016 18.5001 7.16016 18.5001 6.28016 18.5001Z" fill="#ffffff"/>
<path d="M30.6799 18.5001C29.8099 18.5001 28.9399 18.5001 28.0699 18.5001C27.4199 18.5001 26.9099 18.1001 26.7599 17.4901C26.5599 16.6701 27.1799 15.8701 28.0099 15.8701C29.7699 15.8701 31.5399 15.8701 33.2999 15.8701C34.0299 15.8701 34.5699 16.3801 34.6399 17.1001C34.7099 17.7801 34.1199 18.4801 33.4399 18.4901C32.5199 18.5101 31.5999 18.4901 30.6799 18.4901V18.5001Z" fill="#ffffff"/>
</svg>
