<svg width="42" height="38" viewBox="0 0 42 38" fill="none" xmlns="http://www.w3.org/2000/svg">
<path d="M40.97 7.84C40.97 6.01 41 4.19 41.01 2.36C41.03 1.1 39.92 0 38.65 0C35.2 0 31.75 0.04 28.29 0.04C19.61 0.04 10.93 0.03 2.25 0.03C1.07 0.03 0.01 1.06 0.01 2.24C0 4.54 0 6.82 0 9.12C0 16.18 0 23.22 0 30.27C0 30.56 0.03 30.86 0.12 31.14C0.49 32.17 1.37 32.77 2.52 32.77C6.25 32.77 9.99 32.77 13.72 32.77H14.05C14.03 32.85 14.05 32.89 14.02 32.91C13.61 33.75 13.21 34.58 12.77 35.42C12.72 35.51 12.57 35.59 12.47 35.6C11.62 35.6 10.78 35.6 9.94 35.63C9.49 35.63 9.22 35.94 9.21 36.35C9.19 36.8 9.46 37.15 9.9 37.18C10.22 37.21 10.53 37.18 10.85 37.18L30.91 37.2C31.43 37.2 31.78 36.9 31.8 36.42C31.83 35.96 31.51 35.63 30.99 35.61C30.36 35.59 29.73 35.59 29.08 35.61C28.32 35.61 28.32 35.63 27.99 34.95C27.64 34.25 27.29 33.54 26.91 32.77H27.3C31.03 32.77 34.77 32.77 38.53 32.77C39.78 32.77 40.77 31.96 40.98 30.74C41.05 30.26 40.98 29.76 40.98 29.27V7.84H40.97ZM39.41 26.72H3.08C2.67 26.72 2.26 26.72 1.84 26.74C1.64 26.74 1.56 26.69 1.56 26.46V25.04C1.58 18.32 1.58 11.58 1.59 4.86C1.59 4.12 1.57 3.39 1.56 2.65C1.56 2.57 1.56 2.49 1.58 2.4C1.61 2.07 1.71 1.87 1.9 1.74C1.96 1.69 2.05 1.67 2.14 1.64C2.29 1.6 2.46 1.59 2.67 1.59H38.16C38.29 1.59 38.43 1.59 38.56 1.59C38.62 1.59 38.69 1.61 38.75 1.63C39.17 1.72 39.36 1.97 39.4 2.46C39.42 2.56 39.4 2.67 39.4 2.78C39.4 10.19 39.4 17.62 39.4 25.03V26.72H39.41Z" fill="#ffffff"/>
<path d="M27.9799 8.77017C27.9599 10.5702 27.9999 12.3802 27.9499 14.1902C27.8999 16.3802 27.1299 18.3602 25.4999 20.0402C24.2299 21.3402 22.6699 22.3202 20.7899 22.8402C20.6099 22.8902 20.3799 22.8902 20.1999 22.8402C16.3799 21.6302 14.0799 19.2502 13.2399 15.7902C13.0799 15.1002 13.0699 14.3802 13.0199 13.6802C12.9899 12.9902 13.0099 12.3002 13.0099 11.6002H13.0199C13.0199 10.6602 13.0299 9.72017 13.0099 8.77017C12.9999 8.29017 13.2299 7.99017 13.7399 7.80017C15.7999 7.02017 17.8399 6.23017 19.8899 5.42017C20.3099 5.26017 20.6699 5.25017 21.0899 5.42017C23.1299 6.23017 25.1799 7.02016 27.2299 7.81016C27.7499 8.00016 27.9799 8.30017 27.9799 8.80017V8.77017Z" fill="#ffffff"/>
</svg>
