<svg width="47" height="30" viewBox="0 0 47 30" fill="none" xmlns="http://www.w3.org/2000/svg">
<path d="M38.534 10.4944C37.734 10.3544 36.894 10.3944 36.074 10.4044C35.764 10.4044 35.694 10.2944 35.634 10.0444C35.214 8.15445 34.424 6.42444 33.224 4.90444C31.234 2.39444 28.664 0.824444 25.534 0.194444C25.174 0.124444 24.804 0.104444 24.434 0.0144444C24.614 -0.0155556 21.734 0.00444445 21.894 0.0444444C21.424 0.104444 20.984 0.144444 20.564 0.224444C15.694 1.15444 11.604 5.17444 10.604 10.0344C10.554 10.2844 10.494 10.4244 10.174 10.3944C7.66398 10.1544 5.41398 10.8444 3.44398 12.4044C1.67398 13.8144 0.533978 15.6344 0.113978 17.8544C-0.00602162 18.5044 -0.00602162 19.1944 0.00397838 19.8644C0.0239784 20.5844 0.0139784 21.3244 0.203978 22.0044C1.23398 25.6944 3.64398 27.9944 7.36398 28.9044C7.74398 28.9944 8.15398 29.0044 8.55398 29.0744C8.36398 29.1044 37.774 29.0744 37.544 29.0144C40.964 29.0444 45.084 26.3344 46.074 21.8744C47.324 16.2644 43.664 11.3644 38.544 10.4744L38.534 10.4944ZM27.004 24.2144C24.324 25.7844 20.954 25.5844 18.464 23.7244C16.804 22.4844 15.794 20.8544 15.454 18.8144C15.244 17.5944 15.304 16.3844 15.684 15.2044C15.884 14.5744 16.324 14.3544 16.834 14.6144C17.154 14.7744 17.324 15.1044 17.244 15.4644C17.164 15.8444 17.024 16.2244 16.984 16.6144C16.564 20.0444 18.674 23.0644 22.084 23.6344C25.284 24.1744 28.734 22.0944 29.254 18.3144C29.664 15.2944 27.654 12.0044 24.084 11.4144C23.034 11.2444 22.004 11.3344 21.014 11.7144C20.824 11.7844 20.634 11.8544 20.404 11.9344C20.564 12.0444 20.674 12.1044 20.774 12.1844C21.104 12.4544 21.184 12.7344 21.054 13.0844C20.934 13.4244 20.644 13.6344 20.254 13.5944C19.744 13.5544 19.234 13.4644 18.724 13.3844C18.434 13.3444 18.154 13.3044 17.874 13.2244C17.454 13.1144 17.244 12.7844 17.314 12.3544C17.414 11.6644 17.524 10.9644 17.644 10.2744C17.734 9.73444 18.104 9.43445 18.554 9.51445C19.074 9.60445 19.314 10.0044 19.214 10.5744C19.214 10.6344 19.214 10.6944 19.214 10.7944C19.374 10.7044 19.504 10.6244 19.634 10.5644C20.324 10.2444 21.044 9.99444 21.814 9.89444C23.294 9.71444 24.744 9.81445 26.114 10.4244C28.614 11.5344 30.184 13.4444 30.664 16.1244C31.214 19.1344 30.074 22.3744 26.994 24.1744L27.004 24.2144Z" fill="#580818"/>
</svg>
