<svg xmlns="http://www.w3.org/2000/svg" width="47" height="37" viewBox="0 0 47 37" fill="none">
<path d="M46.084 21.8969C45.084 26.3469 40.964 29.0669 37.554 29.0369C37.554 29.0569 35.394 29.0669 32.244 29.0769C32.664 27.9369 32.884 26.7069 32.914 25.4069C32.954 24.0769 32.954 22.7369 32.954 21.4369C32.954 20.5569 32.944 19.6869 32.954 18.7969C32.954 17.9169 32.504 17.2969 31.614 16.9669L30.904 16.6969C28.644 15.8269 26.394 14.9669 24.144 14.0669C23.484 13.8069 22.864 13.8069 22.184 14.0769C19.694 15.0569 17.214 16.0169 14.704 16.9669C13.814 17.3069 13.374 17.9169 13.394 18.7969C13.414 19.6469 13.404 20.4969 13.404 21.3469L13.384 22.9369C13.374 23.5469 13.374 24.1669 13.404 24.7869L13.434 25.2669C13.474 25.9869 13.514 26.7369 13.684 27.4769C13.824 28.0369 13.984 28.5769 14.184 29.0969C10.874 29.0969 8.56398 29.0969 8.56398 29.0869C8.16398 29.0169 7.75398 29.0069 7.37398 28.9169C3.64398 28.0069 1.24398 25.7069 0.213978 22.0169C0.0239784 21.3369 0.0239784 20.5869 0.00397838 19.8669C-0.00602162 19.1969 -0.00602161 18.5169 0.113978 17.8669C0.543978 15.6369 1.68398 13.8169 3.44398 12.4069C5.41398 10.8469 7.66398 10.1569 10.174 10.3969C10.504 10.4269 10.554 10.2869 10.604 10.0369C11.604 5.17687 15.694 1.15688 20.564 0.226875C20.994 0.146875 21.424 0.106875 21.894 0.046875C22.074 -0.003125 24.264 -0.013125 24.444 0.016875C24.814 0.096875 25.184 0.116875 25.544 0.196875C28.684 0.826875 31.254 2.39687 33.234 4.90687C34.444 6.42687 35.234 8.14687 35.654 10.0369C35.704 10.2969 35.774 10.4069 36.084 10.3969C36.914 10.3869 37.744 10.3569 38.554 10.4969C43.674 11.3869 47.334 16.2869 46.084 21.8969Z" fill="#580818"/>
<path d="M31.6139 16.9673L30.9039 16.6973C28.6439 15.8273 26.3939 14.9673 24.1439 14.0673C23.4839 13.8073 22.8639 13.8073 22.1839 14.0773C19.6939 15.0573 17.2139 16.0173 14.7039 16.9673C13.8139 17.3073 13.3739 17.9173 13.3939 18.7973C13.4139 19.6473 13.4039 20.4973 13.4039 21.3473L13.3839 22.9373C13.3739 23.5473 13.3739 24.1673 13.4039 24.7873L13.4339 25.2673C13.4739 25.9873 13.5139 26.7373 13.6839 27.4773C13.8239 28.0373 13.9839 28.5773 14.1839 29.0973C15.5539 32.6973 18.3839 35.1973 22.6239 36.5473C22.8139 36.5973 23.0139 36.6173 23.2039 36.6173C23.3839 36.6173 23.5539 36.5973 23.7039 36.5473C26.0139 35.9073 28.0439 34.7073 29.7439 32.9673C30.8739 31.8073 31.7039 30.5073 32.2439 29.0773C32.6639 27.9373 32.8839 26.7073 32.9139 25.4073C32.9539 24.0773 32.9539 22.7373 32.9539 21.4373C32.9539 20.5573 32.9439 19.6873 32.9539 18.7973C32.9539 17.9173 32.5039 17.2973 31.6139 16.9673ZM22.4939 35.0673C19.1639 33.8973 16.8739 31.8973 15.6539 29.0973C15.3739 28.4873 15.1639 27.8473 14.9939 27.1673C14.8539 26.5473 14.8139 25.8873 14.7839 25.1973L14.7539 24.7073C14.7239 24.1273 14.7239 23.5373 14.7339 22.9473V22.8873L14.7539 21.3473C14.7539 20.4873 14.7639 19.6273 14.7339 18.7573C14.7339 18.5273 14.7539 18.3973 15.1839 18.2273C17.6339 17.2973 20.0539 16.3673 22.4939 15.4073V35.0673ZM31.6039 21.4373C31.6039 22.7273 31.6039 24.0673 31.5639 25.3673C31.5339 26.6973 31.2739 27.9373 30.7739 29.0773C30.3239 30.1473 29.6439 31.1373 28.7739 32.0273C27.3739 33.4573 25.7239 34.4873 23.8439 35.0973V15.3973C26.0239 16.2673 28.2239 17.1173 30.4139 17.9573L31.1339 18.2273C31.5639 18.3873 31.6039 18.5273 31.6039 18.7873C31.5939 19.6773 31.6039 20.5573 31.6039 21.4373Z" fill="#580818"/>
</svg>
