<svg width="38" height="32" viewBox="0 0 38 32" fill="none" xmlns="http://www.w3.org/2000/svg">
<path d="M37.66 19.2998V31.6998H0V19.2998C3.49 19.2998 5.8 19.2998 9.3 19.2998C9.43 19.2998 9.57 19.2998 9.71 19.2998C9.8 19.2998 9.84 19.3298 9.88 19.4098C10.17 20.0598 10.46 20.7098 10.75 21.3698C10.96 21.8498 11.17 22.3198 11.39 22.7998C11.41 22.8398 11.47 22.8798 11.51 22.8798C11.63 22.8898 11.74 22.8798 11.86 22.8798C15.81 22.8798 22.11 22.8798 26.06 22.8798C26.07 22.8798 26.08 22.8798 26.09 22.8798C26.22 22.8998 26.28 22.8398 26.33 22.7198C26.82 21.5998 27.32 20.4798 27.82 19.3698C27.84 19.3298 27.91 19.2998 27.96 19.2998C28.2 19.2998 28.45 19.2998 28.69 19.2998C31.93 19.2998 33.99 19.2998 37.23 19.2998C37.38 19.2998 37.52 19.2998 37.67 19.2998H37.66Z" fill="#ffffff"/>
<path d="M37.66 16.8401H37.51C33.91 16.8401 30.31 16.8401 26.71 16.8401C26.57 16.8401 26.5 16.8701 26.43 17.0101C26.05 17.8901 25.65 18.7701 25.26 19.6501C25.14 19.9101 25.02 20.1801 24.91 20.4501C24.87 20.5401 24.83 20.5601 24.74 20.5601C22.21 20.5601 19.68 20.5601 17.15 20.5601C15.74 20.5601 14.32 20.5601 12.91 20.5601C12.82 20.5601 12.78 20.5301 12.74 20.4501C12.23 19.2901 11.71 18.1301 11.19 16.9701C11.15 16.8801 11.1 16.8501 11.01 16.8501C8.94 16.8501 6.87 16.8501 4.8 16.8501H0C0.28 16.4401 0.53 16.0701 0.79 15.6901C2.12 13.7301 3.46 11.7601 4.79 9.80012C5.41 8.89012 6.03 7.98012 6.64 7.06012C6.73 6.92012 6.82 6.88012 6.98 6.88012C8.7 6.88012 10.43 6.88012 12.15 6.88012C12.18 6.88012 12.22 6.88012 12.27 6.88012C12.23 6.95012 12.21 7.01012 12.17 7.07012C11.84 7.66012 11.5 8.24012 11.17 8.83012C10.99 9.15012 10.8 9.47012 10.63 9.80012C10.01 11.0601 10.81 12.5901 12.2 12.7801C12.36 12.8001 12.52 12.8001 12.68 12.8001C14.22 12.8001 15.76 12.8001 17.3 12.8001C19.94 12.8001 22.59 12.8001 25.23 12.8001C26.14 12.8001 27.01 12.0301 27.18 11.1101C27.29 10.5001 27.11 9.96012 26.81 9.44012C26.32 8.61012 25.86 7.77012 25.39 6.93012C25.39 6.93012 25.39 6.91012 25.38 6.89012C25.4 6.89012 25.42 6.87012 25.44 6.87012C27.15 6.87012 28.86 6.87012 30.57 6.87012C30.79 6.87012 30.92 6.93012 31.05 7.12012C33.05 10.0701 35.05 13.0201 37.06 15.9601C37.24 16.2301 37.42 16.4901 37.6 16.7601C37.61 16.7801 37.62 16.8001 37.64 16.8401H37.66Z" fill="#ffffff"/>
<path d="M24.8998 9.59977C24.5998 9.04977 24.2898 8.49977 23.9798 7.93977C23.3198 6.75977 22.6598 5.57977 21.9898 4.40977C21.2898 3.14977 20.5898 1.89977 19.8798 0.649768C19.8098 0.529768 19.7398 0.409769 19.6398 0.309769C19.4098 0.0797685 19.1398 -0.0102315 18.8098 -0.000231489C18.3798 0.00976851 18.0698 0.199768 17.8499 0.559768C17.7699 0.689768 17.6899 0.819768 17.6099 0.959768C16.4399 3.03977 15.2798 5.10977 14.1098 7.18977C13.6498 8.01977 13.1898 8.82977 12.7398 9.65977C12.4898 10.1098 12.5698 10.6098 12.9098 10.9898C13.1698 11.2698 13.4998 11.3598 13.8698 11.3598H18.8998L23.9598 11.3498C24.5398 11.3498 24.9199 10.9098 25.0399 10.4898C25.1299 10.1698 25.0598 9.87977 24.8998 9.59977ZM19.8298 9.18977H17.8499V3.82977H19.8298V9.18977Z" fill="#ffffff"/>
</svg>
