<svg width="80" height="80" viewBox="0 0 80 80" fill="none" xmlns="http://www.w3.org/2000/svg">
<g clip-path="url(#clip0_182_6250)">
<path d="M69.9998 40.7333C69.9998 22.4333 55.7998 10 39.9998 10C24.3665 10 9.99984 22.1667 9.99984 40.9333C7.99984 42.0667 6.6665 44.2 6.6665 46.6667V53.3333C6.6665 57 9.6665 60 13.3332 60H16.6665V39.6667C16.6665 26.7667 27.0998 16.3333 39.9998 16.3333C52.8998 16.3333 63.3332 26.7667 63.3332 39.6667V63.3333H36.6665V70H63.3332C66.9998 70 69.9998 67 69.9998 63.3333V59.2667C71.9665 58.2333 73.3332 56.2 73.3332 53.8V46.1333C73.3332 43.8 71.9665 41.7667 69.9998 40.7333Z" fill="#580818"/>
<path d="M29.9998 46.6667C31.8408 46.6667 33.3332 45.1743 33.3332 43.3333C33.3332 41.4924 31.8408 40 29.9998 40C28.1589 40 26.6665 41.4924 26.6665 43.3333C26.6665 45.1743 28.1589 46.6667 29.9998 46.6667Z" fill="#580818"/>
<path d="M49.9998 46.6667C51.8408 46.6667 53.3332 45.1743 53.3332 43.3333C53.3332 41.4924 51.8408 40 49.9998 40C48.1589 40 46.6665 41.4924 46.6665 43.3333C46.6665 45.1743 48.1589 46.6667 49.9998 46.6667Z" fill="#580818"/>
<path d="M60.0001 36.7667C58.4001 27.2667 50.1334 20 40.1667 20C30.0667 20 19.2001 28.3667 20.0667 41.5C28.3001 38.1333 34.5001 30.8 36.2667 21.8667C40.6334 30.6333 49.6001 36.6667 60.0001 36.7667Z" fill="#580818"/>
</g>
<defs>
<clipPath id="clip0_182_6250">
<rect width="80" height="80" fill="white"/>
</clipPath>
</defs>
</svg>
