<svg xmlns="http://www.w3.org/2000/svg" width="2036" height="831" viewBox="0 0 2036 831" version="1.1"><path d="M 260.500 28.856 C 252.800 32.018, 243.800 36.068, 240.500 37.857 C 232.723 42.072, 234.773 41.360, 249.500 34.734 C 256.100 31.764, 264.988 28.074, 269.250 26.533 C 273.512 24.993, 277 23.567, 277 23.366 C 277 22.367, 273.328 23.588, 260.500 28.856 M 389 32.687 C 310.141 38.605, 237.338 67.356, 174.559 117.375 C 161.592 127.707, 127.707 161.592, 117.375 174.559 C 71.660 231.936, 44.620 295.217, 34.929 367.500 C 32.297 387.125, 31.326 423.519, 32.901 443.500 C 38.913 519.798, 66.454 591.419, 112.500 650.500 C 177.688 734.141, 271.486 786.266, 377.195 797.595 C 397.579 799.780, 433.569 799.788, 453.746 797.612 C 500.804 792.537, 540.902 781.161, 582.500 761.083 C 647.923 729.507, 704.283 678.537, 742.623 616.272 C 802.694 518.718, 815.847 400.696, 778.762 292 C 754.435 220.700, 710.340 158.951, 650.759 112.754 C 591.205 66.576, 520.852 39.233, 445.696 33.053 C 433.994 32.091, 399.880 31.871, 389 32.687 M 606.500 46.365 C 614.200 50.397, 623.650 55.609, 627.500 57.947 C 631.350 60.285, 633.825 61.503, 633 60.655 C 630.317 57.895, 595.563 38.967, 593.270 39.017 C 592.846 39.026, 598.800 42.333, 606.500 46.365 M 215 50.572 C 206.475 55.283, 198.825 59.844, 198 60.706 C 197.175 61.568, 198.525 61.073, 201 59.605 C 203.475 58.137, 209.325 54.849, 214 52.298 C 228.607 44.326, 232.533 42.019, 231.500 42.012 C 230.950 42.009, 223.525 45.860, 215 50.572 M 185.766 68.250 C 180.415 71.688, 176.029 74.849, 176.019 75.276 C 176.002 75.959, 192.991 65.110, 195.450 62.867 C 197.670 60.841, 194.906 62.378, 185.766 68.250 M 357.500 64.544 C 343.907 66.908, 315.781 73.483, 313.245 74.889 C 312.553 75.273, 354.497 91.686, 406.835 111.511 L 501.680 147.438 510.962 158.219 C 518.162 166.583, 520.832 169.026, 522.872 169.115 C 525.920 169.249, 529.356 168.942, 529.825 168.494 C 530.003 168.324, 527.331 163.080, 523.887 156.842 L 517.625 145.499 449.942 104 C 372.044 56.237, 381.661 60.342, 357.500 64.544 M 479.621 70.250 C 482.322 73.138, 499.600 91.836, 518.016 111.803 C 554.083 150.907, 552.196 148.309, 557.495 166.157 L 560.064 174.814 597.159 215.157 C 617.562 237.346, 635.301 256.628, 636.580 258.006 C 638.454 260.024, 639.333 263.139, 641.096 274.006 L 643.285 287.500 677.094 321.500 C 708.694 353.279, 728.196 375.353, 726.215 377.101 C 725.822 377.448, 716.801 379.105, 706.170 380.784 L 686.839 383.836 669.420 372.978 C 659.839 367.006, 652 362.253, 652 362.415 C 652 362.578, 659.535 369.181, 668.744 377.089 L 685.487 391.468 701.994 398.609 C 711.072 402.537, 718.626 406.382, 718.781 407.154 C 719.289 409.695, 708.119 462.308, 706.913 463.054 C 706.265 463.454, 689.783 467.769, 670.288 472.641 L 634.841 481.500 624.170 490.330 C 618.302 495.187, 612.624 500.012, 611.554 501.054 C 609.220 503.325, 603.443 504.806, 656.571 489.511 C 678.467 483.207, 696.572 478.238, 696.803 478.470 C 697.125 478.792, 688.667 511.435, 679.225 546.312 C 678.832 547.764, 632.700 586.755, 628.322 589.335 C 627.441 589.854, 627.122 586.440, 627.061 575.838 C 627.016 568.032, 626.871 561.553, 626.740 561.440 C 626.608 561.326, 604.759 548.581, 578.186 533.117 L 529.871 505 491.483 505 L 453.094 505 452.146 501.566 C 451.624 499.677, 440.275 455.915, 426.926 404.316 C 413.576 352.717, 402.506 310.313, 402.327 310.083 C 401.003 308.395, 401.225 314.460, 403.460 341.126 C 404.861 357.832, 406.230 373.750, 406.503 376.500 C 406.776 379.250, 413.514 458.225, 421.476 552 C 429.439 645.775, 436.192 725.200, 436.484 728.500 C 436.776 731.800, 437.685 741.925, 438.503 751 C 439.322 760.075, 439.994 768.303, 439.996 769.284 C 439.999 770.819, 440.666 770.997, 444.750 770.554 C 447.363 770.270, 451.910 769.796, 454.856 769.501 C 473.517 767.627, 512.398 759.859, 516.804 757.125 C 517.824 756.491, 515.402 745.881, 505.635 708.203 L 493.164 660.091 496.112 647.349 C 497.734 640.340, 499.187 634.480, 499.341 634.326 C 499.495 634.172, 515.734 656.985, 535.428 685.023 C 555.122 713.060, 571.483 736, 571.785 736 C 573.777 736, 606.604 716.926, 615.258 710.740 L 620.016 707.339 566.258 649.353 C 536.691 617.461, 511.902 590.633, 511.170 589.735 C 510.058 588.370, 510.120 586.826, 511.550 580.302 C 512.490 576.011, 513.443 572.179, 513.667 571.786 C 514.054 571.107, 524.417 578.673, 589.500 627.146 C 648.327 670.959, 656.523 676.986, 657.299 676.993 C 658.588 677.005, 676.793 658.352, 686.084 647.500 C 727.301 599.359, 754.042 543.854, 765.915 481.795 C 773.106 444.208, 773.849 400.556, 767.960 361.655 C 758.672 300.302, 733.133 242.379, 693.377 192.500 C 682.139 178.400, 653.674 149.925, 639.500 138.605 C 600.842 107.728, 554.806 84.312, 508.500 71.972 C 497.064 68.924, 478.909 65, 476.245 65 C 475.294 65, 476.578 66.997, 479.621 70.250 M 646.500 69.692 C 647.050 70.234, 651.297 73.315, 655.937 76.539 C 660.577 79.763, 667.724 85.063, 671.818 88.316 C 675.912 91.570, 678.948 93.726, 678.566 93.107 C 677.521 91.415, 665.541 82.036, 656.500 75.830 C 647.945 69.958, 644.828 68.044, 646.500 69.692 M 165.278 82.689 C 160.450 86.368, 156.012 89.856, 155.415 90.439 C 154.818 91.023, 153.076 92.400, 151.544 93.500 C 150.011 94.600, 147.799 96.433, 146.629 97.574 C 145.458 98.714, 141.145 102.539, 137.045 106.074 C 126.191 115.429, 109.042 132.891, 98.500 145.322 C 94.297 150.278, 91.112 154.152, 88.835 157.076 C 87.369 158.959, 85.007 161.850, 83.586 163.500 C 81.282 166.175, 80.371 168, 81.339 168 C 81.525 168, 84.783 164.063, 88.579 159.250 C 112.477 128.955, 138.391 103.983, 172.578 78.306 C 174.185 77.099, 175.175 76.086, 174.778 76.056 C 174.381 76.025, 170.106 79.010, 165.278 82.689 M 681.441 95.500 C 683.162 96.830, 758.823 97.002, 1348.941 97.022 C 2004.530 97.044, 2014.564 97.073, 2018.756 98.976 C 2025.838 102.190, 2029.781 105.875, 2032.970 112.255 L 2036 118.319 2036 114.601 C 2036 112.555, 2035.582 111.140, 2035.072 111.456 C 2034.562 111.771, 2033.856 111.123, 2033.505 110.015 C 2033.153 108.907, 2032.446 108, 2031.933 108 C 2031.420 108, 2031 107.490, 2031 106.867 C 2031 104.263, 2023.019 99.064, 2015.045 96.475 C 2009.840 94.784, 1979.189 94.727, 1347.045 95.220 C 972.897 95.512, 683.412 95.359, 682 94.869 C 679.628 94.044, 679.599 94.076, 681.441 95.500 M 219 119.424 C 200.846 131.605, 175.875 151.319, 177.161 152.455 C 177.347 152.620, 236.064 155.941, 307.642 159.835 L 437.783 166.916 448.910 173.943 L 460.036 180.969 464.036 179.369 L 468.036 177.769 460.310 169.134 C 456.061 164.385, 452.488 160.348, 452.371 160.162 C 451.982 159.547, 238.755 109, 236.605 109.012 C 235.447 109.019, 227.525 113.705, 219 119.424 M 2026.250 163.620 C 2023.601 173.179, 2023.517 174.020, 2025.468 171.441 C 2026.276 170.374, 2026.951 168.300, 2026.968 166.833 C 2026.986 165.367, 2027.483 164.006, 2028.074 163.809 C 2028.676 163.608, 2029.005 161.703, 2028.824 159.475 C 2028.517 155.713, 2028.379 155.936, 2026.250 163.620 M 77.341 172 C 76.366 173.650, 75.216 175, 74.784 175 C 74.353 175, 74 175.675, 74 176.500 C 74 177.325, 73.550 178, 73 178 C 72.450 178, 72 178.689, 72 179.531 C 72 180.374, 71.325 181.322, 70.500 181.638 C 69.675 181.955, 69 182.841, 69 183.607 C 69 184.373, 68.602 185, 68.117 185 C 67.631 185, 66.968 185.787, 66.644 186.750 C 65.870 189.048, 62.285 195.180, 61.283 195.919 C 60.851 196.239, 59.823 197.850, 59 199.500 C 58.177 201.150, 57.277 202.725, 57.002 203 C 56.064 203.935, 51.874 211.492, 51.319 213.250 C 51.015 214.213, 50.369 215, 49.883 215 C 49.398 215, 49 215.900, 49 217 C 49 218.100, 48.550 219, 48 219 C 47.450 219, 47 219.620, 47 220.378 C 47 221.135, 46.325 222.315, 45.500 223 C 44.675 223.685, 44 225.090, 44 226.122 C 44 227.155, 43.663 228.004, 43.250 228.008 C 42.352 228.017, 40 232.860, 40 234.699 C 40 235.415, 39.550 236, 39 236 C 38.450 236, 38 236.845, 38 237.878 C 38 238.910, 37.325 240.315, 36.500 241 C 35.675 241.685, 35 243.076, 35 244.092 C 35 245.108, 34.100 247.542, 33 249.500 C 31.900 251.458, 31 253.722, 31 254.530 C 31 255.339, 30.586 256, 30.079 256 C 29.573 256, 28.864 257.345, 28.503 258.989 C 28.142 260.632, 27.431 262.234, 26.923 262.548 C 26.415 262.861, 26 264.441, 26 266.059 C 26 267.677, 25.550 269, 25 269 C 24.450 269, 24 269.906, 24 271.014 C 24 273.026, 23.722 273.742, 20.643 279.654 C 19.739 281.389, 19 284.175, 19 285.845 C 19 287.515, 18.550 289.160, 18 289.500 C 17.450 289.840, 17 291.415, 17 293 C 17 294.585, 16.550 296.160, 16 296.500 C 15.450 296.840, 15.026 298.554, 15.057 300.309 C 15.097 302.533, 15.995 300.589, 18.020 293.896 C 29.458 256.098, 48.050 217.533, 71.602 182.750 C 76.723 175.188, 80.508 169, 80.013 169 C 79.518 169, 78.316 170.350, 77.341 172 M 2021.750 179.735 C 2019.700 187.037, 2019.704 187, 2021 187 C 2021.550 187, 2022 185.965, 2022 184.700 C 2022 183.435, 2022.483 181.917, 2023.073 181.327 C 2023.663 180.737, 2024 178.735, 2023.823 176.877 C 2023.526 173.775, 2023.357 174.008, 2021.750 179.735 M 2017.596 194.500 C 2016.549 198.350, 2015.452 202.175, 2015.159 203 C 2014.701 204.288, 2014.864 204.306, 2016.313 203.128 C 2017.241 202.373, 2018 200.550, 2018 199.078 C 2018 197.605, 2018.483 195.917, 2019.073 195.327 C 2019.663 194.737, 2020 192.735, 2019.823 190.877 C 2019.537 187.890, 2019.280 188.308, 2017.596 194.500 M 266.500 200.318 C 148.451 208.748, 125.295 210.641, 124.243 211.944 C 116.932 220.996, 89.901 269.234, 91.335 270.668 C 91.639 270.973, 102.151 268.879, 114.694 266.015 C 127.237 263.152, 153.925 257.047, 174 252.449 C 194.075 247.851, 253.740 234.194, 306.590 222.099 L 402.679 200.108 411.568 202.967 C 417.465 204.863, 420.970 205.524, 421.979 204.930 C 424.694 203.330, 427.365 201.029, 426.927 200.666 C 424.773 198.876, 409.343 190.029, 408.542 190.124 C 407.969 190.192, 344.050 194.779, 266.500 200.318 M 971.223 191.523 C 939.506 197.108, 915.291 216.791, 904.417 245.824 C 899.296 259.497, 897.746 268.568, 897.724 285 C 897.662 332.568, 921.646 365.967, 963.921 377.180 C 980.497 381.576, 1010.475 380.479, 1028.942 374.800 C 1039.647 371.507, 1039.042 372.552, 1036.778 361.283 C 1035.697 355.903, 1034.517 351.193, 1034.156 350.818 C 1033.795 350.443, 1029.675 351.259, 1025 352.632 C 1014.319 355.769, 998.976 357.829, 989.658 357.378 C 951.658 355.534, 929.302 334.703, 924.955 297.088 C 920.944 262.387, 933.086 233.488, 956.863 221.139 C 969.253 214.704, 974.981 213.542, 994 213.606 C 1008.849 213.655, 1011.501 213.938, 1020.500 216.428 C 1026 217.950, 1031.430 219.413, 1032.568 219.679 C 1034.467 220.124, 1034.785 219.347, 1036.480 210.111 C 1037.494 204.583, 1038.284 199.724, 1038.235 199.315 C 1038.094 198.135, 1028.347 195.045, 1018 192.900 C 1005.198 190.246, 982.301 189.572, 971.223 191.523 M 1758.531 191.043 C 1738.599 194.181, 1724.391 204.300, 1717.871 220 C 1715.919 224.701, 1715.581 227.317, 1715.543 238 C 1715.502 249.940, 1715.638 250.791, 1718.586 257 C 1722.441 265.117, 1730.141 273.621, 1738.827 279.351 C 1742.497 281.772, 1754.275 288.161, 1765 293.547 C 1781.929 302.050, 1785.314 304.153, 1790.673 309.501 C 1798.063 316.876, 1800.668 323.656, 1799.601 332.737 C 1798.104 345.478, 1790.291 352.842, 1774.271 356.613 C 1761.968 359.509, 1739.998 356.507, 1723.082 349.617 C 1719.552 348.180, 1716.453 347.213, 1716.197 347.470 C 1715.940 347.726, 1714.642 352.552, 1713.312 358.193 C 1711.122 367.479, 1711.044 368.559, 1712.480 369.609 C 1715.608 371.897, 1732.988 377.011, 1743.047 378.604 C 1755.378 380.557, 1775.434 380.073, 1784.500 377.604 C 1799.161 373.611, 1811.923 364.814, 1819.061 353.779 C 1824.361 345.586, 1826.342 337.372, 1825.832 325.707 C 1825.461 317.215, 1825.029 315.442, 1821.676 308.659 C 1817.572 300.355, 1808.106 289.796, 1799.574 284.005 C 1796.865 282.167, 1786.065 276.181, 1775.574 270.703 C 1765.083 265.226, 1754.546 259.402, 1752.157 257.760 C 1743.426 251.761, 1739.676 241.693, 1742.001 230.494 C 1742.913 226.102, 1744.092 223.898, 1747.336 220.522 C 1753.440 214.170, 1759.680 212.590, 1775.939 213.284 C 1789.265 213.853, 1796.845 215.574, 1807.932 220.550 C 1811.292 222.058, 1814.234 223.099, 1814.470 222.863 C 1815.040 222.293, 1819 204.454, 1819 202.456 C 1819 200.372, 1810.281 196.591, 1798.163 193.419 C 1787.249 190.562, 1768.663 189.448, 1758.531 191.043 M 1096.667 193.667 C 1096.300 194.033, 1096 235.433, 1096 285.667 L 1096 377 1109.500 377 L 1123 377 1123 336.500 L 1123 296 1167 296 L 1211 296 1211 336.500 L 1211 377 1224.505 377 L 1238.010 377 1237.755 285.250 L 1237.500 193.500 1226.500 193.209 C 1220.450 193.049, 1214.487 193.170, 1213.250 193.478 L 1211 194.038 1211 233.019 L 1211 272 1167 272 L 1123 272 1123 233.107 C 1123 198.564, 1122.823 194.146, 1121.418 193.607 C 1119.265 192.781, 1097.500 192.833, 1096.667 193.667 M 1307.250 193.640 C 1306.263 194.056, 1306 213.397, 1306 285.583 L 1306 377 1319.500 377 L 1333 377 1333 285.107 L 1333 193.213 1320.750 193.164 C 1314.013 193.136, 1307.938 193.351, 1307.250 193.640 M 1401.667 193.667 C 1401.300 194.033, 1401 235.433, 1401 285.667 L 1401 377 1452 377 L 1503 377 1503 365.500 L 1503 354 1465.500 354 L 1428 354 1428 324.500 L 1428 295 1463.500 295 L 1499 295 1499 283.500 L 1499 272 1463.500 272 L 1428 272 1428 244 L 1428 216 1465 216 L 1502 216 1502 204.500 L 1502 193 1452.167 193 C 1424.758 193, 1402.033 193.300, 1401.667 193.667 M 1563.616 194.557 C 1563.277 195.441, 1563 236.852, 1563 286.582 L 1563 377 1576.500 377 L 1590 377 1590 338.012 L 1590 299.025 1626.250 298.762 L 1662.500 298.500 1662.783 287.250 L 1663.066 276 1626.533 276 L 1590 276 1590 246 L 1590 216 1628.033 216 L 1666.066 216 1665.783 204.750 L 1665.500 193.500 1614.866 193.225 C 1569.130 192.977, 1564.173 193.106, 1563.616 194.557 M 228.602 280.581 C 140.658 313.791, 68.533 341.134, 68.324 341.342 C 67.484 342.183, 64.033 362.314, 62.554 375 C 60.650 391.341, 59.320 427.482, 60.596 428.202 C 61.093 428.482, 72.525 421.961, 86 413.710 C 99.475 405.458, 118.375 393.879, 128 387.979 C 137.625 382.078, 159 369.021, 175.500 358.965 C 230.998 325.139, 354.349 249.865, 371.453 239.386 L 388.405 229 395.677 229 C 402.682 229, 403.003 228.894, 404.441 226.113 L 405.934 223.227 399.512 221.613 C 395.979 220.726, 392.056 220.045, 390.794 220.099 C 389.533 220.154, 316.546 247.371, 228.602 280.581 M 2008.231 227.897 C 2005.033 239.730, 2006.516 240.192, 2009.991 228.446 C 2010.651 226.217, 2011.035 223.292, 2010.845 221.946 C 2010.618 220.338, 2009.723 222.375, 2008.231 227.897 M 230.500 370.112 C 145.250 440.021, 74.394 498.096, 73.043 499.166 L 70.586 501.113 72.426 508.307 C 75.216 519.220, 81.645 538.216, 86.704 550.500 C 91.337 561.749, 98.677 577, 99.457 577 C 99.696 577, 164.194 504.212, 242.786 415.250 C 363.149 279.004, 386.395 253.157, 390.217 251.323 C 393.437 249.778, 395.064 248.254, 395.825 246.073 L 396.896 243 391.198 243.002 L 385.500 243.004 230.500 370.112 M 389 262.438 C 385.774 263.484, 375.787 278.118, 261.317 449.536 C 193.016 551.816, 137.104 635.777, 137.067 636.115 C 136.906 637.593, 156.841 659.615, 169.098 671.500 C 182.289 684.290, 201.627 700.706, 202.488 699.845 C 202.892 699.441, 216.891 667.105, 276.014 530 C 391.364 262.507, 387.496 271.337, 390.428 268.815 C 392.383 267.134, 393.079 265.708, 392.838 263.877 C 392.514 261.408, 392.356 261.349, 389 262.438 M 522.275 274.271 C 518.877 276.988, 517.478 278.684, 518.275 279.122 C 518.949 279.493, 531.737 283.386, 546.694 287.774 L 573.887 295.751 584.925 303.900 C 590.995 308.381, 596.546 312.272, 597.260 312.546 C 597.973 312.820, 599.418 312.415, 600.470 311.646 C 602.295 310.311, 601.936 309.464, 592.588 293.053 C 587.201 283.596, 582.278 275.691, 581.647 275.486 C 580.165 275.004, 531.972 269.985, 529.430 270.047 C 528.368 270.073, 525.149 271.974, 522.275 274.271 M 1992.603 283.500 C 1990.460 291.200, 1988.495 298.288, 1988.237 299.250 C 1987.978 300.212, 1988.269 301, 1988.883 301 C 1989.498 301, 1990.014 299.762, 1990.032 298.250 C 1990.049 296.738, 1990.724 294.626, 1991.532 293.559 C 1992.339 292.491, 1993 289.930, 1993 287.868 C 1993 285.805, 1993.450 283.840, 1994 283.500 C 1994.550 283.160, 1995 281.649, 1995 280.141 C 1995 278.633, 1995.485 276.915, 1996.078 276.322 C 1996.671 275.729, 1997.009 273.951, 1996.828 272.372 C 1996.603 270.405, 1995.272 273.911, 1992.603 283.500 M 390.954 287.620 C 389.205 292.220, 276.707 743.041, 277.188 743.522 C 278.484 744.818, 303.354 753.626, 316.500 757.445 C 329.729 761.288, 349.007 765.584, 361.750 767.528 L 366 768.176 366.010 764.338 C 366.018 761.021, 367.739 731.412, 369.517 704 C 369.820 699.325, 371.174 676.600, 372.525 653.500 C 375.815 597.254, 375.974 594.583, 376.512 586.500 C 377.239 575.577, 377.833 565.633, 381.535 502.500 C 383.438 470.050, 385.232 439.900, 385.521 435.500 C 387.181 410.312, 394 292.588, 394 289.124 C 394 284.461, 392.447 283.694, 390.954 287.620 M 1983.603 315.500 C 1981.460 323.200, 1979.476 330.358, 1979.196 331.406 C 1978.855 332.680, 1979.069 333.075, 1979.842 332.597 C 1980.479 332.204, 1981 331.060, 1981 330.055 C 1981 329.051, 1981.672 326.940, 1982.494 325.364 C 1983.315 323.789, 1983.990 321.630, 1983.994 320.567 C 1983.997 319.503, 1984.930 316.014, 1986.066 312.814 C 1987.203 309.613, 1987.990 305.758, 1987.816 304.247 C 1987.610 302.456, 1986.144 306.373, 1983.603 315.500 M 13 306.300 C 13 307.565, 12.453 309.147, 11.785 309.815 C 11.117 310.483, 10.244 313.610, 9.845 316.765 C 9.446 319.919, 8.606 324.750, 7.980 327.500 C 7.353 330.250, 6.687 334.750, 6.500 337.500 C 6.312 340.250, 6.375 341.375, 6.639 340 C 7.575 335.132, 14.206 306.628, 14.706 305.324 C 14.985 304.596, 14.716 304, 14.107 304 C 13.498 304, 13 305.035, 13 306.300 M 1976.596 340.500 C 1975.549 344.350, 1974.452 348.175, 1974.159 349 C 1973.701 350.288, 1973.864 350.306, 1975.313 349.128 C 1976.241 348.373, 1977 346.550, 1977 345.078 C 1977 343.605, 1977.483 341.917, 1978.073 341.327 C 1978.663 340.737, 1979 338.735, 1978.823 336.877 C 1978.537 333.890, 1978.280 334.308, 1976.596 340.500 M 4.622 344.675 C 2.900 350.285, 1.022 365.345, 1.168 372.381 C 1.261 376.846, 1.492 378.700, 1.682 376.500 C 1.872 374.300, 2.938 366.029, 4.050 358.120 C 5.884 345.082, 6.107 339.838, 4.622 344.675 M 1969.596 365.298 C 1967.449 373.109, 1965.452 380.175, 1965.159 381 C 1964.701 382.288, 1964.864 382.306, 1966.313 381.128 C 1967.241 380.373, 1968 378.712, 1968 377.437 C 1968 376.161, 1968.450 374.840, 1969 374.500 C 1969.550 374.160, 1970 372.135, 1970 370 C 1970 367.865, 1970.450 365.840, 1971 365.500 C 1971.550 365.160, 1972 363.874, 1972 362.641 C 1972 361.408, 1972.481 359.919, 1973.068 359.332 C 1973.656 358.744, 1973.993 356.651, 1973.818 354.679 C 1973.564 351.816, 1972.715 353.951, 1969.596 365.298 M 1963.274 387.500 C 1962.600 390.250, 1961.760 393.512, 1961.407 394.750 C 1961.017 396.122, 1961.202 397, 1961.883 397 C 1962.498 397, 1963 395.965, 1963 394.700 C 1963 393.435, 1963.481 391.919, 1964.068 391.332 C 1964.656 390.744, 1964.993 388.517, 1964.818 386.382 L 1964.500 382.500 1963.274 387.500 M 1953.679 421.879 C 1949.928 435.251, 1947.105 446.438, 1947.406 446.739 C 1947.707 447.040, 1948.212 446.434, 1948.528 445.393 C 1948.844 444.352, 1949.754 442.226, 1950.551 440.669 C 1951.348 439.112, 1952 436.074, 1952 433.919 C 1952 431.764, 1952.450 430, 1953 430 C 1953.550 430, 1954 428.677, 1954 427.059 C 1954 425.441, 1954.450 423.840, 1955 423.500 C 1955.550 423.160, 1956.014 421.221, 1956.032 419.191 C 1956.049 417.161, 1956.724 414.626, 1957.532 413.559 C 1958.339 412.491, 1959 410.669, 1959 409.509 C 1959 408.349, 1959.481 406.919, 1960.068 406.332 C 1960.656 405.744, 1960.993 403.532, 1960.818 401.415 C 1960.566 398.368, 1959.080 402.627, 1953.679 421.879 M 1942.250 462.569 C 1937.616 479, 1937.533 479.407, 1939 478.500 C 1939.550 478.160, 1940.014 476.896, 1940.032 475.691 C 1940.049 474.486, 1940.724 472.626, 1941.532 471.559 C 1942.339 470.491, 1943 467.930, 1943 465.868 C 1943 463.805, 1943.450 461.840, 1944 461.500 C 1944.550 461.160, 1945 459.874, 1945 458.641 C 1945 457.408, 1945.483 455.917, 1946.073 455.327 C 1946.663 454.737, 1947 452.735, 1946.823 450.877 C 1946.575 448.280, 1945.519 450.979, 1942.250 462.569 M 1158.461 462.250 C 1158.198 462.938, 1158.100 504.225, 1158.242 554 L 1158.500 644.500 1171.750 644.779 L 1185 645.058 1185 553.029 L 1185 461 1171.969 461 C 1162.464 461, 1158.808 461.338, 1158.461 462.250 M 1238 472.500 L 1238 484 1263.994 484 L 1289.988 484 1290.244 564.250 L 1290.500 644.500 1303.750 644.779 L 1317 645.058 1317 564.529 L 1317 484 1343 484 L 1369 484 1369 472.500 L 1369 461 1303.500 461 L 1238 461 1238 472.500 M 1933.173 494.840 C 1930.794 503.277, 1929.096 510.429, 1929.400 510.733 C 1929.704 511.037, 1930.237 510.434, 1930.584 509.393 C 1930.930 508.352, 1931.841 506.082, 1932.607 504.349 C 1933.373 502.616, 1934 500.055, 1934 498.658 C 1934 497.261, 1934.450 495.840, 1935 495.500 C 1935.550 495.160, 1936 493.649, 1936 492.141 C 1936 490.633, 1936.481 488.919, 1937.068 488.332 C 1937.656 487.744, 1937.993 485.517, 1937.818 483.382 C 1937.552 480.129, 1936.799 481.984, 1933.173 494.840 M 6.102 494.191 C 6.046 496.771, 6.450 499.160, 7 499.500 C 7.550 499.840, 8.007 501.329, 8.015 502.809 C 8.024 504.289, 8.467 506.175, 9 507 C 10.327 509.054, 10.199 507.833, 8.056 498 C 6.331 490.085, 6.197 489.823, 6.102 494.191 M 10.046 513.816 C 10.021 516.739, 10.549 520.114, 11.220 521.316 C 13.149 524.768, 14.969 530.295, 14.985 532.750 C 14.993 533.987, 15.499 535, 16.108 535 C 16.773 535, 16.972 534.098, 16.605 532.750 C 16.268 531.513, 14.665 525.550, 13.043 519.500 C 10.164 508.765, 10.092 508.628, 10.046 513.816 M 1047 511.518 C 1032.278 515.591, 1023 529.348, 1023 547.105 L 1023 554 1015.500 554 L 1008 554 1008 562 L 1008 570 1015.500 570 L 1023 570 1023 607.500 L 1023 645 1032 645 L 1041 645 1041 607.530 L 1041 570.060 1053.750 569.780 L 1066.500 569.500 1066.792 561.750 L 1067.084 554 1053.897 554 L 1040.710 554 1041.307 546.880 C 1041.995 538.668, 1045.075 531.636, 1049.334 528.552 C 1051.754 526.799, 1053.612 526.509, 1062.074 526.559 L 1071.981 526.618 1072.490 523.309 C 1072.771 521.489, 1073.241 518.449, 1073.535 516.554 C 1073.969 513.758, 1073.675 512.896, 1071.972 511.985 C 1068.434 510.092, 1053.186 509.806, 1047 511.518 M 1926.596 518.500 C 1925.549 522.350, 1924.452 526.175, 1924.159 527 C 1923.701 528.288, 1923.864 528.306, 1925.313 527.128 C 1926.241 526.373, 1927 524.775, 1927 523.578 C 1927 522.380, 1927.481 520.919, 1928.068 520.332 C 1928.656 519.744, 1928.993 517.517, 1928.818 515.382 C 1928.512 511.643, 1928.430 511.758, 1926.596 518.500 M 1921.697 535.379 C 1920.705 539.146, 1920.132 542.465, 1920.423 542.757 C 1920.715 543.048, 1921.229 542.434, 1921.567 541.393 C 1921.905 540.352, 1922.625 538.565, 1923.167 537.423 C 1923.709 536.281, 1924.006 533.813, 1923.826 531.939 C 1923.536 528.906, 1923.302 529.284, 1921.697 535.379 M 1915.250 558.569 C 1910.544 575.257, 1910.594 575, 1912 575 C 1912.550 575, 1913 574.127, 1913 573.059 C 1913 571.991, 1913.450 570.840, 1914 570.500 C 1914.550 570.160, 1915 567.939, 1915 565.563 C 1915 562.945, 1915.590 560.755, 1916.500 560 C 1917.325 559.315, 1918 557.498, 1918 555.961 C 1918 554.424, 1918.481 553.006, 1919.069 552.810 C 1919.681 552.606, 1920.001 550.544, 1919.819 547.977 C 1919.529 543.907, 1919.114 544.869, 1915.250 558.569 M 923.909 553.896 C 903.210 560.519, 890.947 583.986, 895.336 608.577 C 897.170 618.856, 900.821 626.549, 907.150 633.474 C 919.014 646.455, 939.570 650.069, 956.495 642.149 C 979.216 631.517, 987.772 598.665, 974.503 573.006 C 972.069 568.300, 964.520 560.494, 959.644 557.642 C 949.906 551.946, 934.915 550.375, 923.909 553.896 M 929.684 568.449 C 923.069 570.808, 918.929 575.192, 915.944 582.999 C 909.798 599.076, 914.196 620.469, 925.136 627.709 C 928.232 629.758, 930.803 630.520, 935.660 630.829 C 951.580 631.843, 960.767 621.786, 961.790 602.225 C 962.656 585.676, 958.069 574.825, 948.063 569.750 C 941.978 566.663, 935.897 566.233, 929.684 568.449 M 1906.250 590.569 C 1901.544 607.257, 1901.594 607, 1903 607 C 1903.550 607, 1904 605.902, 1904 604.559 C 1904 603.216, 1904.450 601.840, 1905 601.500 C 1905.550 601.160, 1906 599.135, 1906 597 C 1906 594.865, 1906.408 592.866, 1906.908 592.557 C 1908.396 591.637, 1911.192 581.570, 1910.833 578.421 C 1910.602 576.395, 1909.198 580.118, 1906.250 590.569 M 38.018 592.191 C 38.008 593.121, 38.450 594.160, 39 594.500 C 39.550 594.840, 40 595.991, 40 597.059 C 40 598.127, 40.450 599, 41 599 C 41.550 599, 42 599.684, 42 600.520 C 42 601.356, 43.125 603.822, 44.500 606 C 45.875 608.178, 47 610.644, 47 611.480 C 47 612.316, 47.340 613, 47.756 613 C 48.172 613, 49.137 614.462, 49.901 616.250 C 50.666 618.038, 51.855 620.175, 52.544 621 C 53.791 622.493, 57.124 628.157, 59.656 633.088 C 60.387 634.512, 61.943 636.537, 63.113 637.588 C 64.284 638.640, 62.644 635.225, 59.469 630 C 56.295 624.775, 50.174 613.750, 45.867 605.500 C 41.560 597.250, 38.028 591.261, 38.018 592.191 M 1885.632 664 C 1876.904 695.075, 1868.738 722.525, 1867.486 725 C 1865.029 729.855, 1862.229 733.172, 1857.500 736.827 L 1854.500 739.146 1858.750 736.889 C 1861.088 735.647, 1863 734.377, 1863.001 734.066 C 1863.001 733.755, 1864.576 731.731, 1866.501 729.568 C 1868.425 727.406, 1870 724.593, 1870 723.318 C 1870 722.043, 1870.450 721, 1871 721 C 1871.550 721, 1872 719.875, 1872 718.500 C 1872 717.125, 1872.450 716, 1873 716 C 1873.550 716, 1874 714.030, 1874 711.622 C 1874 708.951, 1874.585 706.760, 1875.500 706 C 1876.325 705.315, 1877 703.712, 1877 702.437 C 1877 701.161, 1877.450 699.840, 1878 699.500 C 1878.550 699.160, 1879 696.884, 1879 694.441 C 1879 691.998, 1879.450 690, 1880 690 C 1880.550 690, 1881 688.926, 1881 687.614 C 1881 686.302, 1881.672 683.940, 1882.494 682.364 C 1883.315 680.789, 1883.990 677.839, 1883.994 675.809 C 1883.997 673.779, 1884.450 671.840, 1885 671.500 C 1885.550 671.160, 1886 669.810, 1886 668.500 C 1886 667.190, 1886.450 665.840, 1887 665.500 C 1887.550 665.160, 1888 663.109, 1888 660.941 C 1888 658.773, 1888.450 657, 1889 657 C 1889.550 657, 1890.014 655.763, 1890.032 654.250 C 1890.049 652.737, 1890.724 650.626, 1891.532 649.559 C 1892.339 648.491, 1893 646.123, 1893 644.295 C 1893 642.468, 1893.450 640.079, 1894 638.986 C 1894.550 637.894, 1895.450 636.106, 1896 635.014 C 1896.550 633.921, 1897 631.473, 1897 629.573 C 1897 627.673, 1897.450 625.840, 1898 625.500 C 1898.550 625.160, 1899 623.884, 1899 622.663 C 1899 621.443, 1899.701 619.444, 1900.557 618.221 C 1901.536 616.825, 1902.001 614.418, 1901.807 611.749 C 1901.563 608.370, 1898.253 619.063, 1885.632 664 M 65.075 640.500 C 65.058 641.050, 65.924 642.625, 67 644 C 68.076 645.375, 68.973 646.950, 68.995 647.500 C 69.017 648.050, 70.152 649.560, 71.517 650.855 C 72.883 652.150, 74 653.608, 74 654.094 C 74 655.030, 75.748 657.345, 80.274 662.401 C 81.800 664.105, 79.775 660.759, 75.774 654.964 C 71.773 649.170, 67.736 643.320, 66.802 641.964 C 65.869 640.609, 65.091 639.950, 65.075 640.500 M 83 666.717 C 83 667.331, 83.338 667.983, 83.750 668.167 C 84.162 668.350, 87.425 672.194, 91 676.710 C 94.575 681.225, 97.839 684.937, 98.252 684.960 C 98.666 684.982, 95.807 681.063, 91.898 676.250 C 83.134 665.460, 83 665.316, 83 666.717 M 100.723 688.548 C 103.020 691.842, 131.947 721.323, 138.500 727.049 C 154.607 741.122, 174.065 755.811, 190 765.927 C 204.138 774.902, 205.141 775.491, 215.500 780.886 C 228.095 787.446, 226.091 785.988, 210 776.885 C 175.399 757.310, 146.493 734.668, 115.539 702.891 C 106.221 693.326, 99.554 686.872, 100.723 688.548 M 662.459 750.091 C 651.527 758.161, 646.365 762.451, 653 757.949 C 654.925 756.644, 659.853 753.083, 663.950 750.038 C 668.048 746.992, 672.323 743.953, 673.450 743.285 C 674.578 742.617, 675.031 742.055, 674.459 742.035 C 673.886 742.016, 668.486 745.641, 662.459 750.091" stroke="none" fill="#fbfafa" fill-rule="evenodd"/><path d="M 377.500 1.685 C 289.867 9.975, 207.966 45.166, 142 102.874 C 81.427 155.864, 36.065 227.863, 15.140 304.226 C -24.216 447.851, 14.465 599.265, 117.494 704.883 C 152.387 740.654, 187.083 766.084, 231 788.075 C 273.260 809.238, 321.755 823.771, 366 828.533 C 369.575 828.918, 373.400 829.464, 374.500 829.747 C 379.501 831.033, 444.938 830.841, 457.570 829.504 C 532.777 821.541, 603.145 794.289, 662.459 750.154 C 668.486 745.669, 674.111 742.001, 674.959 742.002 C 675.806 742.003, 940.200 741.890, 1262.500 741.752 L 1848.500 741.500 1853.127 739.220 C 1859.140 736.258, 1864.440 731.044, 1867.393 725.187 C 1868.693 722.609, 1887.400 657.725, 1908.965 581 C 1930.530 504.275, 1951.031 431.375, 1954.522 419 C 2017.174 196.899, 2036 128.675, 2036 123.721 C 2036 119.708, 2035.221 116.761, 2032.970 112.255 C 2029.781 105.875, 2025.838 102.190, 2018.756 98.976 C 2014.564 97.073, 2004.529 97.044, 1348.850 97.022 L 683.201 97 677.850 92.896 C 632.116 57.814, 595.478 37.614, 549 21.856 C 495.029 3.558, 433.815 -3.642, 377.500 1.685 M 389 32.687 C 310.141 38.605, 237.338 67.356, 174.559 117.375 C 161.592 127.707, 127.707 161.592, 117.375 174.559 C 71.660 231.936, 44.620 295.217, 34.929 367.500 C 32.297 387.125, 31.326 423.519, 32.901 443.500 C 38.913 519.798, 66.454 591.419, 112.500 650.500 C 177.688 734.141, 271.486 786.266, 377.195 797.595 C 397.579 799.780, 433.569 799.788, 453.746 797.612 C 500.804 792.537, 540.902 781.161, 582.500 761.083 C 647.923 729.507, 704.283 678.537, 742.623 616.272 C 802.694 518.718, 815.847 400.696, 778.762 292 C 754.435 220.700, 710.340 158.951, 650.759 112.754 C 591.205 66.576, 520.852 39.233, 445.696 33.053 C 433.994 32.091, 399.880 31.871, 389 32.687 M 357.500 64.544 C 343.907 66.908, 315.781 73.483, 313.245 74.889 C 312.553 75.273, 354.497 91.686, 406.835 111.511 L 501.680 147.438 510.962 158.219 C 518.162 166.583, 520.832 169.026, 522.872 169.115 C 525.920 169.249, 529.356 168.942, 529.825 168.494 C 530.003 168.324, 527.331 163.080, 523.887 156.842 L 517.625 145.499 449.942 104 C 372.044 56.237, 381.661 60.342, 357.500 64.544 M 479.621 70.250 C 482.322 73.138, 499.600 91.836, 518.016 111.803 C 554.083 150.907, 552.196 148.309, 557.495 166.157 L 560.064 174.814 597.159 215.157 C 617.562 237.346, 635.301 256.628, 636.580 258.006 C 638.454 260.024, 639.333 263.139, 641.096 274.006 L 643.285 287.500 677.094 321.500 C 708.694 353.279, 728.196 375.353, 726.215 377.101 C 725.822 377.448, 716.801 379.105, 706.170 380.784 L 686.839 383.836 669.420 372.978 C 659.839 367.006, 652 362.253, 652 362.415 C 652 362.578, 659.535 369.181, 668.744 377.089 L 685.487 391.468 701.994 398.609 C 711.072 402.537, 718.626 406.382, 718.781 407.154 C 719.289 409.695, 708.119 462.308, 706.913 463.054 C 706.265 463.454, 689.783 467.769, 670.288 472.641 L 634.841 481.500 624.170 490.330 C 618.302 495.187, 612.624 500.012, 611.554 501.054 C 609.220 503.325, 603.443 504.806, 656.571 489.511 C 678.467 483.207, 696.572 478.238, 696.803 478.470 C 697.125 478.792, 688.667 511.435, 679.225 546.312 C 678.832 547.764, 632.700 586.755, 628.322 589.335 C 627.441 589.854, 627.122 586.440, 627.061 575.838 C 627.016 568.032, 626.871 561.553, 626.740 561.440 C 626.608 561.326, 604.759 548.581, 578.186 533.117 L 529.871 505 491.483 505 L 453.094 505 452.146 501.566 C 451.624 499.677, 440.275 455.915, 426.926 404.316 C 413.576 352.717, 402.506 310.313, 402.327 310.083 C 401.003 308.395, 401.225 314.460, 403.460 341.126 C 404.861 357.832, 406.230 373.750, 406.503 376.500 C 406.776 379.250, 413.514 458.225, 421.476 552 C 429.439 645.775, 436.192 725.200, 436.484 728.500 C 436.776 731.800, 437.685 741.925, 438.503 751 C 439.322 760.075, 439.994 768.303, 439.996 769.284 C 439.999 770.819, 440.666 770.997, 444.750 770.554 C 447.363 770.270, 451.910 769.796, 454.856 769.501 C 473.517 767.627, 512.398 759.859, 516.804 757.125 C 517.824 756.491, 515.402 745.881, 505.635 708.203 L 493.164 660.091 496.112 647.349 C 497.734 640.340, 499.187 634.480, 499.341 634.326 C 499.495 634.172, 515.734 656.985, 535.428 685.023 C 555.122 713.060, 571.483 736, 571.785 736 C 573.777 736, 606.604 716.926, 615.258 710.740 L 620.016 707.339 566.258 649.353 C 536.691 617.461, 511.902 590.633, 511.170 589.735 C 510.058 588.370, 510.120 586.826, 511.550 580.302 C 512.490 576.011, 513.443 572.179, 513.667 571.786 C 514.054 571.107, 524.417 578.673, 589.500 627.146 C 648.327 670.959, 656.523 676.986, 657.299 676.993 C 658.588 677.005, 676.793 658.352, 686.084 647.500 C 727.301 599.359, 754.042 543.854, 765.915 481.795 C 773.106 444.208, 773.849 400.556, 767.960 361.655 C 758.672 300.302, 733.133 242.379, 693.377 192.500 C 682.139 178.400, 653.674 149.925, 639.500 138.605 C 600.842 107.728, 554.806 84.312, 508.500 71.972 C 497.064 68.924, 478.909 65, 476.245 65 C 475.294 65, 476.578 66.997, 479.621 70.250 M 219 119.424 C 200.846 131.605, 175.875 151.319, 177.161 152.455 C 177.347 152.620, 236.064 155.941, 307.642 159.835 L 437.783 166.916 448.910 173.943 L 460.036 180.969 464.036 179.369 L 468.036 177.769 460.310 169.134 C 456.061 164.385, 452.488 160.348, 452.371 160.162 C 451.982 159.547, 238.755 109, 236.605 109.012 C 235.447 109.019, 227.525 113.705, 219 119.424 M 266.500 200.318 C 148.451 208.748, 125.295 210.641, 124.243 211.944 C 116.932 220.996, 89.901 269.234, 91.335 270.668 C 91.639 270.973, 102.151 268.879, 114.694 266.015 C 127.237 263.152, 153.925 257.047, 174 252.449 C 194.075 247.851, 253.740 234.194, 306.590 222.099 L 402.679 200.108 411.568 202.967 C 417.465 204.863, 420.970 205.524, 421.979 204.930 C 424.694 203.330, 427.365 201.029, 426.927 200.666 C 424.773 198.876, 409.343 190.029, 408.542 190.124 C 407.969 190.192, 344.050 194.779, 266.500 200.318 M 971.223 191.523 C 939.506 197.108, 915.291 216.791, 904.417 245.824 C 899.296 259.497, 897.746 268.568, 897.724 285 C 897.662 332.568, 921.646 365.967, 963.921 377.180 C 980.497 381.576, 1010.475 380.479, 1028.942 374.800 C 1039.647 371.507, 1039.042 372.552, 1036.778 361.283 C 1035.697 355.903, 1034.517 351.193, 1034.156 350.818 C 1033.795 350.443, 1029.675 351.259, 1025 352.632 C 1014.319 355.769, 998.976 357.829, 989.658 357.378 C 951.658 355.534, 929.302 334.703, 924.955 297.088 C 920.944 262.387, 933.086 233.488, 956.863 221.139 C 969.253 214.704, 974.981 213.542, 994 213.606 C 1008.849 213.655, 1011.501 213.938, 1020.500 216.428 C 1026 217.950, 1031.430 219.413, 1032.568 219.679 C 1034.467 220.124, 1034.785 219.347, 1036.480 210.111 C 1037.494 204.583, 1038.284 199.724, 1038.235 199.315 C 1038.094 198.135, 1028.347 195.045, 1018 192.900 C 1005.198 190.246, 982.301 189.572, 971.223 191.523 M 1758.531 191.043 C 1738.599 194.181, 1724.391 204.300, 1717.871 220 C 1715.919 224.701, 1715.581 227.317, 1715.543 238 C 1715.502 249.940, 1715.638 250.791, 1718.586 257 C 1722.441 265.117, 1730.141 273.621, 1738.827 279.351 C 1742.497 281.772, 1754.275 288.161, 1765 293.547 C 1781.929 302.050, 1785.314 304.153, 1790.673 309.501 C 1798.063 316.876, 1800.668 323.656, 1799.601 332.737 C 1798.104 345.478, 1790.291 352.842, 1774.271 356.613 C 1761.968 359.509, 1739.998 356.507, 1723.082 349.617 C 1719.552 348.180, 1716.453 347.213, 1716.197 347.470 C 1715.940 347.726, 1714.642 352.552, 1713.312 358.193 C 1711.122 367.479, 1711.044 368.559, 1712.480 369.609 C 1715.608 371.897, 1732.988 377.011, 1743.047 378.604 C 1755.378 380.557, 1775.434 380.073, 1784.500 377.604 C 1799.161 373.611, 1811.923 364.814, 1819.061 353.779 C 1824.361 345.586, 1826.342 337.372, 1825.832 325.707 C 1825.461 317.215, 1825.029 315.442, 1821.676 308.659 C 1817.572 300.355, 1808.106 289.796, 1799.574 284.005 C 1796.865 282.167, 1786.065 276.181, 1775.574 270.703 C 1765.083 265.226, 1754.546 259.402, 1752.157 257.760 C 1743.426 251.761, 1739.676 241.693, 1742.001 230.494 C 1742.913 226.102, 1744.092 223.898, 1747.336 220.522 C 1753.440 214.170, 1759.680 212.590, 1775.939 213.284 C 1789.265 213.853, 1796.845 215.574, 1807.932 220.550 C 1811.292 222.058, 1814.234 223.099, 1814.470 222.863 C 1815.040 222.293, 1819 204.454, 1819 202.456 C 1819 200.372, 1810.281 196.591, 1798.163 193.419 C 1787.249 190.562, 1768.663 189.448, 1758.531 191.043 M 1096.667 193.667 C 1096.300 194.033, 1096 235.433, 1096 285.667 L 1096 377 1109.500 377 L 1123 377 1123 336.500 L 1123 296 1167 296 L 1211 296 1211 336.500 L 1211 377 1224.505 377 L 1238.010 377 1237.755 285.250 L 1237.500 193.500 1226.500 193.209 C 1220.450 193.049, 1214.487 193.170, 1213.250 193.478 L 1211 194.038 1211 233.019 L 1211 272 1167 272 L 1123 272 1123 233.107 C 1123 198.564, 1122.823 194.146, 1121.418 193.607 C 1119.265 192.781, 1097.500 192.833, 1096.667 193.667 M 1307.250 193.640 C 1306.263 194.056, 1306 213.397, 1306 285.583 L 1306 377 1319.500 377 L 1333 377 1333 285.107 L 1333 193.213 1320.750 193.164 C 1314.013 193.136, 1307.938 193.351, 1307.250 193.640 M 1401.667 193.667 C 1401.300 194.033, 1401 235.433, 1401 285.667 L 1401 377 1452 377 L 1503 377 1503 365.500 L 1503 354 1465.500 354 L 1428 354 1428 324.500 L 1428 295 1463.500 295 L 1499 295 1499 283.500 L 1499 272 1463.500 272 L 1428 272 1428 244 L 1428 216 1465 216 L 1502 216 1502 204.500 L 1502 193 1452.167 193 C 1424.758 193, 1402.033 193.300, 1401.667 193.667 M 1563.616 194.557 C 1563.277 195.441, 1563 236.852, 1563 286.582 L 1563 377 1576.500 377 L 1590 377 1590 338.012 L 1590 299.025 1626.250 298.762 L 1662.500 298.500 1662.783 287.250 L 1663.066 276 1626.533 276 L 1590 276 1590 246 L 1590 216 1628.033 216 L 1666.066 216 1665.783 204.750 L 1665.500 193.500 1614.866 193.225 C 1569.130 192.977, 1564.173 193.106, 1563.616 194.557 M 228.602 280.581 C 140.658 313.791, 68.533 341.134, 68.324 341.342 C 67.484 342.183, 64.033 362.314, 62.554 375 C 60.650 391.341, 59.320 427.482, 60.596 428.202 C 61.093 428.482, 72.525 421.961, 86 413.710 C 99.475 405.458, 118.375 393.879, 128 387.979 C 137.625 382.078, 159 369.021, 175.500 358.965 C 230.998 325.139, 354.349 249.865, 371.453 239.386 L 388.405 229 395.677 229 C 402.682 229, 403.003 228.894, 404.441 226.113 L 405.934 223.227 399.512 221.613 C 395.979 220.726, 392.056 220.045, 390.794 220.099 C 389.533 220.154, 316.546 247.371, 228.602 280.581 M 230.500 370.112 C 145.250 440.021, 74.394 498.096, 73.043 499.166 L 70.586 501.113 72.426 508.307 C 75.216 519.220, 81.645 538.216, 86.704 550.500 C 91.337 561.749, 98.677 577, 99.457 577 C 99.696 577, 164.194 504.212, 242.786 415.250 C 363.149 279.004, 386.395 253.157, 390.217 251.323 C 393.437 249.778, 395.064 248.254, 395.825 246.073 L 396.896 243 391.198 243.002 L 385.500 243.004 230.500 370.112 M 389 262.438 C 385.774 263.484, 375.787 278.118, 261.317 449.536 C 193.016 551.816, 137.104 635.777, 137.067 636.115 C 136.906 637.593, 156.841 659.615, 169.098 671.500 C 182.289 684.290, 201.627 700.706, 202.488 699.845 C 202.892 699.441, 216.891 667.105, 276.014 530 C 391.364 262.507, 387.496 271.337, 390.428 268.815 C 392.383 267.134, 393.079 265.708, 392.838 263.877 C 392.514 261.408, 392.356 261.349, 389 262.438 M 522.275 274.271 C 518.877 276.988, 517.478 278.684, 518.275 279.122 C 518.949 279.493, 531.737 283.386, 546.694 287.774 L 573.887 295.751 584.925 303.900 C 590.995 308.381, 596.546 312.272, 597.260 312.546 C 597.973 312.820, 599.418 312.415, 600.470 311.646 C 602.295 310.311, 601.936 309.464, 592.588 293.053 C 587.201 283.596, 582.278 275.691, 581.647 275.486 C 580.165 275.004, 531.972 269.985, 529.430 270.047 C 528.368 270.073, 525.149 271.974, 522.275 274.271 M 390.954 287.620 C 389.205 292.220, 276.707 743.041, 277.188 743.522 C 278.484 744.818, 303.354 753.626, 316.500 757.445 C 329.729 761.288, 349.007 765.584, 361.750 767.528 L 366 768.176 366.010 764.338 C 366.018 761.021, 367.739 731.412, 369.517 704 C 369.820 699.325, 371.174 676.600, 372.525 653.500 C 375.815 597.254, 375.974 594.583, 376.512 586.500 C 377.239 575.577, 377.833 565.633, 381.535 502.500 C 383.438 470.050, 385.232 439.900, 385.521 435.500 C 387.181 410.312, 394 292.588, 394 289.124 C 394 284.461, 392.447 283.694, 390.954 287.620 M 1158.461 462.250 C 1158.198 462.938, 1158.100 504.225, 1158.242 554 L 1158.500 644.500 1171.750 644.779 L 1185 645.058 1185 553.029 L 1185 461 1171.969 461 C 1162.464 461, 1158.808 461.338, 1158.461 462.250 M 1238 472.500 L 1238 484 1263.994 484 L 1289.988 484 1290.244 564.250 L 1290.500 644.500 1303.750 644.779 L 1317 645.058 1317 564.529 L 1317 484 1343 484 L 1369 484 1369 472.500 L 1369 461 1303.500 461 L 1238 461 1238 472.500 M 1047 511.518 C 1032.278 515.591, 1023 529.348, 1023 547.105 L 1023 554 1015.500 554 L 1008 554 1008 562 L 1008 570 1015.500 570 L 1023 570 1023 607.500 L 1023 645 1032 645 L 1041 645 1041 607.530 L 1041 570.060 1053.750 569.780 L 1066.500 569.500 1066.792 561.750 L 1067.084 554 1053.897 554 L 1040.710 554 1041.307 546.880 C 1041.995 538.668, 1045.075 531.636, 1049.334 528.552 C 1051.754 526.799, 1053.612 526.509, 1062.074 526.559 L 1071.981 526.618 1072.490 523.309 C 1072.771 521.489, 1073.241 518.449, 1073.535 516.554 C 1073.969 513.758, 1073.675 512.896, 1071.972 511.985 C 1068.434 510.092, 1053.186 509.806, 1047 511.518 M 923.909 553.896 C 903.210 560.519, 890.947 583.986, 895.336 608.577 C 897.170 618.856, 900.821 626.549, 907.150 633.474 C 919.014 646.455, 939.570 650.069, 956.495 642.149 C 979.216 631.517, 987.772 598.665, 974.503 573.006 C 972.069 568.300, 964.520 560.494, 959.644 557.642 C 949.906 551.946, 934.915 550.375, 923.909 553.896 M 929.684 568.449 C 923.069 570.808, 918.929 575.192, 915.944 582.999 C 909.798 599.076, 914.196 620.469, 925.136 627.709 C 928.232 629.758, 930.803 630.520, 935.660 630.829 C 951.580 631.843, 960.767 621.786, 961.790 602.225 C 962.656 585.676, 958.069 574.825, 948.063 569.750 C 941.978 566.663, 935.897 566.233, 929.684 568.449" stroke="none" fill="#930c0d" fill-rule="evenodd"/></svg>